<?xml version="1.0" encoding="utf-8"?>
<!-- Generator: Adobe Illustrator 18.0.0, SVG Export Plug-In . SVG Version: 6.00 Build 0)  -->
<!DOCTYPE svg PUBLIC "-//W3C//DTD SVG 1.1//EN" "http://www.w3.org/Graphics/SVG/1.1/DTD/svg11.dtd">
<svg version="1.1" id="Layer_1" xmlns="http://www.w3.org/2000/svg" xmlns:xlink="http://www.w3.org/1999/xlink" x="0px" y="0px"
	 viewBox="0 0 190.3 105.3" enable-background="new 0 0 190.3 105.3" xml:space="preserve">
<g>
	<polygon fill="#9F0000" points="190.3,39.3 0,105.3 0,66 190.3,0 	"/>
	<rect x="0" y="0" fill="#D51C24" width="190.3" height="39.3"/>
	<rect x="0" y="65.1" fill="#D51C24" width="190.3" height="39.3"/>
	<g>
		<path fill="#9F0000" d="M27.4,29.4l8.9-19.1c0.1-0.2,0.3-0.3,0.5-0.3h0.3c0.2,0,0.4,0.1,0.5,0.3l8.9,19.1c0.2,0.4-0.1,0.7-0.5,0.7
			h-3.2c-0.5,0-0.7-0.2-1-0.7l-1-2.2h-7.7l-1,2.3c-0.1,0.3-0.5,0.7-1,0.7h-3.1C27.5,30.1,27.3,29.7,27.4,29.4z M39.1,23.3L37,18.6h0
			l-2.1,4.7H39.1z"/>
		<path fill="#9F0000" d="M50.2,10.7c0-0.3,0.2-0.5,0.5-0.5h6.9c3.8,0,6.4,2.8,6.4,6.3c0,3.5-2.6,6.4-6.3,6.4h-3v6.7
			c0,0.3-0.3,0.5-0.5,0.5h-3.4c-0.3,0-0.5-0.3-0.5-0.5V10.7z M57.5,18.7c1.2,0,2.1-1,2.1-2.2c0-1.2-0.9-2.1-2.1-2.1h-2.9v4.3H57.5z"
			/>
		<path fill="#9F0000" d="M68.2,10.7c0-0.3,0.2-0.5,0.5-0.5h6.9c3.8,0,6.4,2.8,6.4,6.3c0,3.5-2.6,6.4-6.3,6.4h-3v6.7
			c0,0.3-0.3,0.5-0.5,0.5h-3.4c-0.3,0-0.5-0.3-0.5-0.5V10.7z M75.5,18.7c1.2,0,2.1-1,2.1-2.2c0-1.2-0.9-2.1-2.1-2.1h-2.9v4.3H75.5z"
			/>
		<path fill="#9F0000" d="M93.8,28.2c-0.2-0.2-0.3-0.5-0.1-0.9L95,25c0.2-0.4,0.7-0.4,1-0.2c0.8,0.5,2.2,1.6,4,1.6
			c1.1,0,2-0.7,2-1.7c0-1.2-1.1-2-2.9-2.9c-2.8-1.3-5.5-2.9-5.5-6.3c0-2.8,2.2-5.7,6.6-5.7c3,0,5.2,1.5,6.1,2.1
			c0.3,0.2,0.3,0.7,0.2,0.9l-1.4,2.2c-0.2,0.3-0.7,0.5-1.3,0.2c-0.7-0.5-2.3-1.5-3.8-1.5c-1.2,0-1.7,0.7-1.7,1.6
			c0,0.9,1.1,1.7,3.1,2.6c2.5,1.2,5.7,2.6,5.7,6.5c0,2.9-2.5,5.9-6.7,5.9C96.5,30.4,94.4,28.9,93.8,28.2z"/>
		<path fill="#9F0000" d="M111.3,20.9h-1.1c-0.3,0-0.6-0.3-0.6-0.6v-2.6c0-0.4,0.3-0.6,0.6-0.6h1.1v-3.6c0-0.3,0.3-0.6,0.6-0.6h3.1
			c0.3,0,0.6,0.3,0.6,0.6V17h2.6c0.3,0,0.6,0.3,0.6,0.6v2.6c0,0.3-0.3,0.6-0.6,0.6h-2.6v4.6c0,0.6,0.3,0.9,0.9,0.9
			c0.5,0,1.3-0.2,1.6-0.3c0.3-0.1,0.7,0.1,0.7,0.4l0.6,2.5c0.1,0.4-0.1,0.6-0.4,0.7c-0.9,0.4-2.4,0.7-3.8,0.7c-2.5,0-4-1.6-4-4.6
			V20.9z"/>
		<path fill="#9F0000" d="M129.1,16.7c3.8,0,6.8,3.1,6.8,6.8c0,3.8-3.1,6.9-6.8,6.9c-3.8,0-6.9-3.2-6.9-6.9
			C122.3,19.8,125.4,16.7,129.1,16.7z M129.1,26.3c1.5,0,2.7-1.3,2.7-2.8c0-1.5-1.2-2.8-2.7-2.8c-1.5,0-2.8,1.3-2.8,2.8
			C126.4,25,127.6,26.3,129.1,26.3z"/>
		<path fill="#9F0000" d="M139.8,17.6c0-0.4,0.3-0.6,0.6-0.6h1.4c0.3,0,0.5,0.2,0.6,0.4l0.6,1.5c0.6-1.1,1.6-2.1,3.3-2.1
			c1.2,0,2.1,0.3,2.6,0.7c0.2,0.2,0.2,0.5,0.1,0.7l-1.3,2.6c-0.1,0.3-0.4,0.5-0.7,0.3c-0.2-0.1-0.7-0.2-1-0.2c-1,0-1.7,0.7-1.7,1.8
			v6.9c0,0.4-0.2,0.6-0.7,0.6h-3c-0.3,0-0.6-0.3-0.6-0.6V17.6z"/>
		<path fill="#9F0000" d="M157.8,16.7c3.3,0,6.2,2.5,6.2,6.1c0,0.2,0,0.7-0.1,0.9c0,0.3-0.3,0.6-0.6,0.6h-8.1c0,1,0.9,2.3,2.7,2.3
			c0.9,0,1.9-0.4,2.5-0.8c0.3-0.3,0.6-0.3,0.8,0l1.4,1.9c0.2,0.3,0.3,0.7,0,0.9c-1.1,1.2-2.8,1.9-4.9,1.9c-3.9,0-6.9-2.8-6.9-6.9
			C151,19.8,153.9,16.7,157.8,16.7z M159.6,21.7c-0.1-0.9-0.8-1.6-1.9-1.6c-1.1,0-1.8,0.7-2,1.6H159.6z"/>
		<path fill="#9F0000" d="M12.1,75.6c0-0.3,0.3-0.5,0.5-0.5H16c0.3,0,0.5,0.3,0.5,0.5v7.2h8.1v-7.2c0-0.3,0.2-0.5,0.5-0.5h3.4
			c0.3,0,0.5,0.3,0.5,0.5v18.8c0,0.3-0.3,0.5-0.5,0.5h-3.4c-0.3,0-0.5-0.3-0.5-0.5V87h-8.1v7.5c0,0.3-0.2,0.5-0.5,0.5h-3.4
			c-0.3,0-0.5-0.3-0.5-0.5V75.6z"/>
		<path fill="#9F0000" d="M37.9,86.6c1.5,0,2.6,0.6,2.6,0.6c0-1.3-0.3-2-1.8-2c-0.9,0-2.4,0.2-3.3,0.5c-0.5,0.2-0.7-0.2-0.8-0.7
			l-0.3-2c-0.1-0.6,0.2-0.8,0.5-0.9c0.3-0.1,2.6-0.4,4.4-0.4c4.1,0,5.5,1.6,5.5,5.5v7.2c0,0.3-0.3,0.6-0.6,0.6h-1.4
			c-0.2,0-0.4-0.1-0.6-0.4l-0.4-0.9c-0.8,0.7-1.9,1.6-4,1.6c-2.6,0-4.5-1.7-4.5-4.3C33.1,88.5,35,86.6,37.9,86.6z M38.8,92.1
			c0.8,0,1.5-0.7,1.5-1.5c0-0.8-0.7-1.4-1.5-1.4s-1.4,0.7-1.4,1.4C37.3,91.5,38,92.1,38.8,92.1z"/>
		<path fill="#9F0000" d="M49.2,75.7c0-0.3,0.3-0.6,0.6-0.6h3.1c0.3,0,0.6,0.3,0.6,0.6v18.6c0,0.3-0.3,0.6-0.6,0.6h-3.1
			c-0.3,0-0.6-0.3-0.6-0.6V75.7z"/>
		<path fill="#9F0000" d="M58.2,75.7c0-0.3,0.3-0.6,0.6-0.6h3.1c0.3,0,0.6,0.3,0.6,0.6v18.6c0,0.3-0.3,0.6-0.6,0.6h-3.1
			c-0.3,0-0.6-0.3-0.6-0.6V75.7z"/>
		<path fill="#9F0000" d="M81.5,81.6c3.8,0,6.8,3.1,6.8,6.8c0,3.8-3.1,6.9-6.8,6.9s-6.9-3.2-6.9-6.9C74.6,84.7,77.7,81.6,81.5,81.6z
			 M81.5,91.2c1.5,0,2.7-1.3,2.7-2.8c0-1.5-1.2-2.8-2.7-2.8c-1.5,0-2.8,1.3-2.8,2.8C78.7,89.9,79.9,91.2,81.5,91.2z"/>
		<path fill="#9F0000" d="M93.1,85.7h-1.1c-0.4,0-0.6-0.3-0.6-0.6v-2.6c0-0.4,0.3-0.6,0.6-0.6h1.1v-1.1c0-3.5,1.8-6,5.7-6
			c1.7,0,3.4,0.7,4,1.3c0.2,0.1,0.3,0.5,0.1,0.7l-1.4,2.4c-0.1,0.2-0.5,0.3-0.7,0.2c-0.4-0.3-1.1-0.5-1.7-0.5
			c-1.5,0-1.6,0.8-1.6,1.9v1.1h3.3c0.3,0,0.6,0.3,0.6,0.6v2.6c0,0.3-0.3,0.6-0.6,0.6h-3.3v8.6c0,0.3-0.3,0.6-0.7,0.6h-3
			c-0.3,0-0.6-0.3-0.6-0.6V85.7z"/>
		<path fill="#9F0000" d="M113.7,75.6c0-0.3,0.2-0.5,0.5-0.5H126c0.3,0,0.5,0.3,0.5,0.5v3.1c0,0.3-0.2,0.5-0.5,0.5h-7.9v4.1h6.5
			c0.3,0,0.5,0.3,0.5,0.5V87c0,0.3-0.3,0.5-0.5,0.5h-6.5v6.9c0,0.3-0.3,0.5-0.5,0.5h-3.4c-0.3,0-0.5-0.3-0.5-0.5V75.6z"/>
		<path fill="#9F0000" d="M133.1,86.6c1.5,0,2.6,0.6,2.6,0.6c0-1.3-0.3-2-1.8-2c-0.9,0-2.4,0.2-3.3,0.5c-0.5,0.2-0.7-0.2-0.8-0.7
			l-0.3-2c-0.1-0.6,0.2-0.8,0.5-0.9c0.3-0.1,2.6-0.4,4.4-0.4c4.1,0,5.5,1.6,5.5,5.5v7.2c0,0.3-0.3,0.6-0.6,0.6h-1.4
			c-0.2,0-0.4-0.1-0.6-0.4l-0.4-0.9c-0.8,0.7-1.9,1.6-4,1.6c-2.6,0-4.5-1.7-4.5-4.3C128.3,88.5,130.1,86.6,133.1,86.6z M134,92.1
			c0.8,0,1.5-0.7,1.5-1.5c0-0.8-0.7-1.4-1.5-1.4s-1.4,0.7-1.4,1.4C132.5,91.5,133.2,92.1,134,92.1z"/>
		<path fill="#9F0000" d="M144.4,82.5c0-0.4,0.3-0.6,0.6-0.6h1.3c0.2,0,0.5,0.1,0.5,0.4l0.5,1.3c0.9-0.9,1.9-2,4.1-2
			c1.8,0,2.7,0.7,3.9,2c0.7-0.7,1.9-2,4.2-2c4,0,5.4,2.9,5.4,6.7v6.1c0,0.3-0.3,0.6-0.6,0.6h-3.1c-0.4,0-0.6-0.3-0.6-0.6V88
			c0-1.3-0.4-2.4-1.9-2.4c-1.1,0-1.8,0.9-1.8,2.2v6.6c0,0.3-0.2,0.6-0.6,0.6H153c-0.3,0-0.6-0.3-0.6-0.6V88c0-1.3-0.2-2.4-1.7-2.4
			c-1.3,0-2,0.9-2,2.2v6.5c0,0.3-0.3,0.6-0.6,0.6H145c-0.4,0-0.6-0.3-0.6-0.6V82.5z"/>
		<path fill="#9F0000" d="M175.3,81.6c3.3,0,6.2,2.5,6.2,6.1c0,0.2,0,0.7-0.1,0.9c0,0.3-0.3,0.6-0.6,0.6h-8.1c0,1,0.9,2.3,2.7,2.3
			c0.9,0,1.9-0.4,2.5-0.8c0.3-0.3,0.6-0.3,0.8,0l1.4,1.9c0.2,0.3,0.3,0.7,0,0.9c-1.1,1.2-2.8,1.9-4.9,1.9c-3.9,0-6.9-2.8-6.9-6.9
			C168.5,84.7,171.4,81.6,175.3,81.6z M177.1,86.6c-0.1-0.9-0.8-1.6-1.9-1.6c-1.1,0-1.8,0.7-2,1.6H177.1z"/>
	</g>
</g>
</svg>
