<?xml version="1.0" encoding="utf-8"?>
<!-- Generator: Adobe Illustrator 18.0.0, SVG Export Plug-In . SVG Version: 6.00 Build 0)  -->
<!DOCTYPE svg PUBLIC "-//W3C//DTD SVG 1.1//EN" "http://www.w3.org/Graphics/SVG/1.1/DTD/svg11.dtd">
<svg version="1.1" id="Layer_1" xmlns="http://www.w3.org/2000/svg" xmlns:xlink="http://www.w3.org/1999/xlink" x="0px" y="0px"
	 viewBox="0 0 165.7 45.9" enable-background="new 0 0 165.7 45.9" xml:space="preserve">
<g>
	<g>
		<g>
			<path fill="#FFFFFF" d="M99.6,18.2l3.2-0.1c0,0-0.3,1.5-0.6,2.7c0,0,1.3-2.7,4.2-2.6c1.2,0,2.2,0.9,2.2,2.3
				c0,1.4-1.4,3.2-3.3,2.3c-0.1,0-0.2-0.1-0.1-0.2c0.4-0.6,0.6-1.2,0.5-1.8c-0.1-0.3-0.3-0.5-0.8-0.4c-1.6,0.2-2.9,2-4.6,10.1h-3.8
				L99.6,18.2z"/>
			<path fill="#FFFFFF" d="M119.3,23.2c0,4.1-3.4,7.5-7.2,7.5c-3.2,0-5.3-2.1-5.3-5c0-4.1,3.4-7.5,7.2-7.5
				C117.2,18.1,119.3,20.2,119.3,23.2z M114.1,19.8c-2.2,0-3.5,5.1-3.5,7.3c0,1.6,0.6,2,1.4,2c2.3,0,3.5-5.1,3.5-7.3
				C115.5,20.2,114.9,19.8,114.1,19.8z"/>
			<path fill="#FFFFFF" d="M126.7,23.9c-0.1,0-0.2-0.1-0.1-0.2c0.4-0.6,1.5-1.7,0.8-3.1c-0.1-0.2-0.5-0.7-1.4-0.7
				c-2.3,0-3.7,3.3-3.7,5.8c0,2.3,1.5,3,2.8,3c1.8,0.1,4.7-1,6-4.7l0,2.4c-2.1,3.5-4.5,4.4-7.4,4.3c-3.1-0.1-5.3-1.8-5.3-4.8
				c0-4.2,3.5-7.7,7.4-7.7c2.2,0,4.1,1.2,4.1,3.4C130,22.5,128.7,24.8,126.7,23.9z"/>
			<path fill="#FFFFFF" d="M132.5,30.4h-3.7l4.1-15.5l0.6-2.4h3.7l-3.3,12.6L132.5,30.4z"/>
			<path fill="#FFFFFF" d="M145.7,25.5v0.2c0,2.3,1.6,2.9,2.8,2.9c1.5,0,4.5-0.6,6-4.7v2.4c-1.8,3-4,4.3-7.3,4.3
				c-3,0-5.4-1.8-5.4-4.8c0-4,3.4-7.8,7.8-7.8c2.5,0,4,1.2,4,3C153.6,23.4,151.2,25.4,145.7,25.5z M145.9,24.2
				c3.3-0.2,4.3-1.7,4.3-3.1c0-0.8-0.4-1.3-1.1-1.3C147.6,19.7,146.3,22.1,145.9,24.2z"/>
			<path fill="#FFFFFF" d="M137.5,25c0,2.3,1.3,3.7,3.2,3.7c1.5,0,3.2-0.6,4.8-4.7v2.4c-1.8,3-2.7,4.3-6,4.3c-3.3,0-5.6-2.3-5.6-5.2
				"/>
			<path fill="#FFFFFF" d="M133.2,26.9c-0.1-1.1,0.1-8.2,4.6-8.8c2.4-0.3,4,1.4,4,3c-0.1,2.3-2.4,4.2-7.9,4.4 M134.2,24.1
				c3.3-0.2,4.3-1.7,4.3-3.1c0-0.8-0.4-1.3-1.1-1.3C135.9,19.7,134.6,22,134.2,24.1z"/>
			<path fill="#FFFFFF" d="M155,21.1l-1.2,4.3c-0.2,0.8-0.4,1.7-0.4,2.3c0,2.1,2.1,2.9,4,2.9c2.5,0,4.4-1.6,5.6-4.7l-1-0.5
				c-0.7,1.9-1.8,3.2-3.3,3.1c-1,0-1.5-0.8-1.5-1.5c0-0.3,0.1-0.7,0.2-1.1l1.6-6.1h3.1l0.5-1.8h-3.1l1.4-5.3l-3.7,0l-1.4,5.3"/>
			<path fill="#FFFFFF" d="M153.2,18v0.2c0.7,0.3,2.2,1.9,1.2,4.5l1.8-2.9l0.5-1.8H153.2z"/>
		</g>
		<g>
			<g>
				<path fill="#FFFFFF" d="M7.3,21.5c1.2-2.3,2.7-3.4,4.3-3.4c2.4,0,3.5,1.8,3.5,4.3c0,3.7-3,8.2-7.5,8.2c-3.2,0-4.8-1.8-4.8-4.5
					c0-1.1,0.3-2.6,0.9-4.6l2.4-8.9l3.4,0h0.3L7.3,21.5z M6.4,26.8c0,1.3,0.6,2,1.4,2c2.1,0,3.4-4.3,3.4-6.3c0-1.4-0.5-2-1.3-2
					C8.1,20.5,6.4,24.4,6.4,26.8z"/>
				<path fill="#FFFFFF" d="M26.6,23.1c0,4.1-3.4,7.5-7.2,7.5c-3.2,0-5.3-2.1-5.3-5c0-4.1,3.4-7.5,7.2-7.5
					C24.5,18.1,26.6,20.2,26.6,23.1z M21.4,19.7c-2.2,0-3.5,5.1-3.5,7.3c0,1.6,0.6,2,1.4,2c2.3,0,3.5-5.1,3.5-7.3
					C22.8,20.1,22.2,19.7,21.4,19.7z"/>
				<path fill="#FFFFFF" d="M27.1,21.1l-1.2,4.3c-0.2,0.8-0.4,1.7-0.4,2.3c0,2.1,2.1,2.9,4,2.9c2.5,0,4.4-1.6,5.6-4.7l-1-0.5
					c-0.7,1.9-1.8,3.2-3.3,3.1c-1,0-1.5-0.8-1.5-1.5c0-0.3,0.1-0.7,0.2-1.1l1.6-6.1h3.1l0.5-1.8h-3.1l1.4-5.3l-3.7,0l-1.4,5.3"/>
				<path fill="#FFFFFF" d="M39.2,19.7h3.5l0.5-1.8h-3.5l1.4-5.3l-3.7,0L36,17.9h-4.1c0.4,1.3,0.8,1.9,1.4,1.8h2.3L34,25.4
					c-0.2,0.8-0.4,1.7-0.4,2.3c0,2.1,2.1,2.9,4,2.9c2.5,0,4.4-1.6,5.6-4.7l-1-0.5c-0.7,1.9-1.8,3.2-3.3,3.1c-1,0-1.5-0.8-1.5-1.5
					c0-0.3,0.1-0.7,0.2-1.1L39.2,19.7z"/>
				<path fill="#FFFFFF" d="M45.5,12.6l3.5,0h0.3l-3.6,13.2c-0.1,0.5-0.2,0.9-0.2,1.1c0,0.8,0.6,1.6,1.6,1.7c1.5,0,3.2-1.3,3.9-3.3
					l0.7,0.6c-1.2,3.1-3.8,4.5-5.9,4.7c-1.8,0.1-4-0.9-4-2.9c0-0.6,0.2-1.6,0.4-2.3L45.5,12.6z"/>
				<path fill="#FFFFFF" d="M25.6,17.9V18c0.6,0.3,2,1.5,1,4.7l1.8-2.9l0.5-1.8H25.6z"/>
			</g>
			<path fill="#FFFFFF" d="M59.3,26.4c-1.6,2-3.5,2.3-4.7,2.3c-1.3,0-2.8-0.7-2.8-2.9v-0.2c5.5-0.2,7.9-2.1,7.9-4.4c0-1.7-1.4-3-4-3
				c-4.4,0-7.8,3.8-7.8,7.8c0,3,2.3,4.8,5.4,4.8c3.3,0,5.5-1.3,7.3-4.3v0H59.3z M55.3,19.7c0.7,0,1.1,0.5,1.1,1.3
				c0,1.4-1,2.9-4.3,3.1C52.4,22.1,53.7,19.7,55.3,19.7z"/>
		</g>
	</g>
	<g>
		<g>
			<path fill="#FFFFFF" d="M73.6,36.1c-2.4-1.4-4.3-3.6-5.4-6.3c-1.3-3.2-1.3-6.8,0.1-10c2-4.8,6.7-7.8,11.7-8
				c0.3-0.7,0.7-1.5,1.1-2.1c-6.3-0.3-12.3,3.3-14.8,9.3c-3.1,7.3,0,15.7,6.8,19.3L73.6,36.1z"/>
			<path fill="#FFFFFF" d="M91.2,14.4c-0.2,0.8-0.5,1.5-0.8,2.3c2.9,3.6,3.8,8.7,1.9,13.3c-2.3,5.4-8,8.7-13.8,7.8
				c-0.3,0-0.6-0.1-1-0.2l-1.2,1.9c0.6,0.2,1.3,0.3,1.9,0.4c6.8,0.9,13.4-2.8,16.1-9.1C96.7,25.1,95.3,18.7,91.2,14.4z"/>
		</g>
		<path fill="#FFFFFF" d="M79.9,26.3c-0.8-0.3-1.6,0.1-1.9,0.9l-6.1,17.6c0,0.1,0,0.3,0.1,0.3c0.1,0.1,0.3,0,0.4-0.1l8.3-16.6
			c0-0.1,0.1-0.1,0.1-0.2C81.1,27.4,80.7,26.5,79.9,26.3z M79.6,27.8C79.6,27.8,79.6,27.8,79.6,27.8l-2.6,5.7c0,0,0,0-0.1,0
			c0,0,0,0,0-0.1l2.2-5.8c0-0.1,0.2-0.2,0.3-0.1C79.6,27.5,79.7,27.7,79.6,27.8z"/>
		<path fill="#FFFFFF" d="M90.9,0.8c0,0-6.2,4.6-9.4,12.2c-0.7,1.6-1.1,3.1-1.5,4.6c-1.3,1.1-2.6,2.5-3.8,4.1
			c-1.3,1.8-2.3,3.6-3.1,5.4c-0.2,0.4,0.3,0.7,0.6,0.4c1.9-1.9,3.9-3.3,5.5-4.2c0,0.5,0,1-0.1,1.5c0,0,0,0,0,0c0,0,0,0,0,0
			c0,0,0,0,0.1,0c0,0,0,0,0,0c0,0,0.1,0,0.1,0c0,0,0,0,0.1,0c0.1,0,0.1,0,0.2,0c0,0,0,0,0,0c0.1,0,0.1,0,0.2,0c0,0,0.1,0,0.1,0
			c0.1,0,0.1,0,0.2,0c0,0,0.1,0,0.1,0c0.1,0,0.1,0,0.2,0c0,0,0.1,0,0.1,0c0.1,0,0.2,0.1,0.3,0.1c0.8,0.4,1.1,1.2,1.1,1.2
			c0.2-0.2,0.5-0.5,0.7-0.8c0.3,1.7,0.6,3.9,0.6,6.4c0,0.4,0.5,0.5,0.7,0.1c0.7-1.8,1.6-3.7,2-5.8c0.3-1.8,0.4-3.6,0.3-5.2
			c0.9-1.4,1.8-2.9,2.5-4.6C91.9,8.5,90.9,0.8,90.9,0.8z M85.2,11c0.2-0.5,0.8-0.9,1.4-0.8l0,0l0,0l0,0c0.1,0,0.2,0,0.3,0.1l-1,2.4
			C85.2,12.4,84.9,11.7,85.2,11z M87.8,15.7c-1.6,3.7-3.9,6.7-5.8,8.7c-0.2-0.2-0.5-0.4-0.8-0.5c1.5-3.6,3-7.2,4.4-10.5c0,0,0,0,0,0
			c0.2,0.1,0.3,0.1,0.5,0.1c0.9,0.1,1.7-0.3,2.1-1.2c0.4-1,0-2.1-1-2.6c0,0,0,0,0,0c1.1-2.6,2.1-4.9,2.9-6.9
			C90.1,5.5,89.9,10.6,87.8,15.7z"/>
	</g>
</g>
</svg>
