<?xml version="1.0" encoding="utf-8"?>
<!-- Generator: Adobe Illustrator 18.0.0, SVG Export Plug-In . SVG Version: 6.00 Build 0)  -->
<!DOCTYPE svg PUBLIC "-//W3C//DTD SVG 1.1//EN" "http://www.w3.org/Graphics/SVG/1.1/DTD/svg11.dtd">
<svg version="1.1" id="Layer_1" xmlns="http://www.w3.org/2000/svg" xmlns:xlink="http://www.w3.org/1999/xlink" x="0px" y="0px"
	 viewBox="371.7 250.1 217.2 60.1" enable-background="new 371.7 250.1 217.2 60.1" xml:space="preserve">
<g>
	<g>
		<g>
			<path fill="#FFFFFF" d="M502.7,273.7l4.3-0.1c0,0-0.4,2-0.8,3.6c0,0,1.7-3.6,5.6-3.5c1.6,0,3,1.2,3,3.1s-1.9,4.3-4.4,3.1
				c-0.1,0-0.3-0.1-0.1-0.3c0.5-0.8,0.8-1.6,0.7-2.4c-0.1-0.4-0.4-0.7-1.1-0.5c-2.1,0.3-3.9,2.7-6.2,13.6h-5.1L502.7,273.7z"/>
			<path fill="#FFFFFF" d="M529.1,280.4c0,5.5-4.6,10.1-9.7,10.1c-4.3,0-7.1-2.8-7.1-6.7c0-5.5,4.6-10.1,9.7-10.1
				C526.3,273.6,529.1,276.4,529.1,280.4z M522.2,275.9c-3,0-4.7,6.8-4.7,9.8c0,2.1,0.8,2.7,1.9,2.7c3.1,0,4.7-6.8,4.7-9.8
				C524,276.4,523.2,275.9,522.2,275.9z"/>
			<path fill="#FFFFFF" d="M539.1,281.4c-0.1,0-0.3-0.1-0.1-0.3c0.5-0.8,2-2.3,1.1-4.2c-0.1-0.3-0.7-0.9-1.9-0.9c-3.1,0-5,4.4-5,7.8
				c0,3.1,2,4,3.8,4c2.4,0.1,6.3-1.3,8.1-6.3v3.2c-2.8,4.7-6,5.9-9.9,5.8c-4.2-0.1-7.1-2.4-7.1-6.4c0-5.6,4.7-10.3,9.9-10.3
				c3,0,5.5,1.6,5.5,4.6C543.5,279.5,541.8,282.6,539.1,281.4z"/>
			<path fill="#FFFFFF" d="M546.9,290.1h-5l5.5-20.8l0.8-3.2h5l-4.4,16.9L546.9,290.1z"/>
			<path fill="#FFFFFF" d="M564.6,283.5v0.3c0,3.1,2.1,3.9,3.8,3.9c2,0,6-0.8,8.1-6.3v3.2c-2.4,4-5.4,5.8-9.8,5.8
				c-4,0-7.2-2.4-7.2-6.4c0-5.4,4.6-10.5,10.5-10.5c3.4,0,5.4,1.6,5.4,4C575.2,280.7,572,283.4,564.6,283.5z M564.8,281.8
				c4.4-0.3,5.8-2.3,5.8-4.2c0-1.1-0.5-1.7-1.5-1.7C567.1,275.7,565.4,279,564.8,281.8z"/>
			<path fill="#FFFFFF" d="M553.6,282.8c0,3.1,1.7,5,4.3,5c2,0,4.3-0.8,6.4-6.3v3.2c-2.4,4-3.6,5.8-8.1,5.8c-4.4,0-7.5-3.1-7.5-7"/>
			<path fill="#FFFFFF" d="M547.8,285.4c-0.1-1.5,0.1-11,6.2-11.8c3.2-0.4,5.4,1.9,5.4,4c-0.1,3.1-3.2,5.6-10.6,5.9 M549.1,281.6
				c4.4-0.3,5.8-2.3,5.8-4.2c0-1.1-0.5-1.7-1.5-1.7C551.4,275.7,549.7,278.8,549.1,281.6z"/>
			<path fill="#FFFFFF" d="M577.1,277.6l-1.6,5.8c-0.3,1.1-0.5,2.3-0.5,3.1c0,2.8,2.8,3.9,5.4,3.9c3.4,0,5.9-2.1,7.5-6.3l-1.3-0.7
				c-0.9,2.5-2.4,4.3-4.4,4.2c-1.3,0-2-1.1-2-2c0-0.4,0.1-0.9,0.3-1.5l2.1-8.2h4.2l0.7-2.4h-4.2l1.9-7.1h-5l-1.9,7.1"/>
			<path fill="#FFFFFF" d="M574.6,273.4v0.3c0.9,0.4,3,2.5,1.6,6l2.4-3.9l0.7-2.4H574.6L574.6,273.4z"/>
		</g>
		<g>
			<g>
				<path fill="#FFFFFF" d="M378.8,278.1c1.6-3.1,3.6-4.6,5.8-4.6c3.2,0,4.7,2.4,4.7,5.8c0,5-4,11-10.1,11c-4.3,0-6.4-2.4-6.4-6
					c0-1.5,0.4-3.5,1.2-6.2l3.2-11.9h4.6h0.4L378.8,278.1z M377.6,285.3c0,1.7,0.8,2.7,1.9,2.7c2.8,0,4.6-5.8,4.6-8.5
					c0-1.9-0.7-2.7-1.7-2.7C379.9,276.8,377.6,282,377.6,285.3z"/>
				<path fill="#FFFFFF" d="M404.7,280.3c0,5.5-4.6,10.1-9.7,10.1c-4.3,0-7.1-2.8-7.1-6.7c0-5.5,4.6-10.1,9.7-10.1
					C401.9,273.6,404.7,276.4,404.7,280.3z M397.8,275.7c-3,0-4.7,6.8-4.7,9.8c0,2.1,0.8,2.7,1.9,2.7c3.1,0,4.7-6.8,4.7-9.8
					C399.6,276.3,398.8,275.7,397.8,275.7z"/>
				<path fill="#FFFFFF" d="M405.4,277.6l-1.6,5.8c-0.3,1.1-0.5,2.3-0.5,3.1c0,2.8,2.8,3.9,5.4,3.9c3.4,0,5.9-2.1,7.5-6.3l-1.3-0.7
					c-0.9,2.5-2.4,4.3-4.4,4.2c-1.3,0-2-1.1-2-2c0-0.4,0.1-0.9,0.3-1.5l2.1-8.2h4.2l0.7-2.4h-4.2l1.9-7.1h-5l-1.9,7.1"/>
				<path fill="#FFFFFF" d="M421.6,275.7h4.7l0.7-2.4h-4.7l1.9-7.1h-5l-1.9,7.1h-5.5c0.5,1.7,1.1,2.5,1.9,2.4h3.1l-2.1,7.6
					c-0.3,1.1-0.5,2.3-0.5,3.1c0,2.8,2.8,3.9,5.4,3.9c3.4,0,5.9-2.1,7.5-6.3l-1.3-0.7c-0.9,2.5-2.4,4.3-4.4,4.2c-1.3,0-2-1.1-2-2
					c0-0.4,0.1-0.9,0.3-1.5L421.6,275.7z"/>
				<path fill="#FFFFFF" d="M430.1,266.2h4.7h0.4l-4.8,17.7c-0.1,0.7-0.3,1.2-0.3,1.5c0,1.1,0.8,2.1,2.1,2.3c2,0,4.3-1.7,5.2-4.4
					l0.9,0.8c-1.6,4.2-5.1,6-7.9,6.3c-2.4,0.1-5.4-1.2-5.4-3.9c0-0.8,0.3-2.1,0.5-3.1L430.1,266.2z"/>
				<path fill="#FFFFFF" d="M403.4,273.3v0.1c0.8,0.4,2.7,2,1.3,6.3l2.4-3.9l0.7-2.4h-4.4V273.3z"/>
			</g>
			<path fill="#FFFFFF" d="M448.6,284.7c-2.1,2.7-4.7,3.1-6.3,3.1c-1.7,0-3.8-0.9-3.8-3.9v-0.3c7.4-0.3,10.6-2.8,10.6-5.9
				c0-2.3-1.9-4-5.4-4c-5.9,0-10.5,5.1-10.5,10.5c0,4,3.1,6.4,7.2,6.4c4.4,0,7.4-1.7,9.8-5.8l0,0h-1.7V284.7z M443.2,275.7
				c0.9,0,1.5,0.7,1.5,1.7c0,1.9-1.3,3.9-5.8,4.2C439.4,279,441.1,275.7,443.2,275.7z"/>
		</g>
	</g>
	<g>
		<g>
			<path fill="#FFFFFF" d="M467.8,297.7c-3.2-1.9-5.8-4.8-7.2-8.5c-1.7-4.3-1.7-9.1,0.1-13.4c2.7-6.4,9-10.5,15.7-10.7
				c0.4-0.9,0.9-2,1.5-2.8c-8.5-0.4-16.5,4.4-19.9,12.5c-4.2,9.8,0,21.1,9.1,25.9L467.8,297.7z"/>
			<path fill="#FFFFFF" d="M491.4,268.6c-0.3,1.1-0.7,2-1.1,3.1c3.9,4.8,5.1,11.7,2.5,17.8c-3.1,7.2-10.7,11.7-18.5,10.5
				c-0.4,0-0.8-0.1-1.3-0.3l-1.6,2.5c0.8,0.3,1.7,0.4,2.5,0.5c9.1,1.2,18-3.8,21.6-12.2C498.8,283,496.9,274.4,491.4,268.6z"/>
		</g>
		<path fill="#FFFFFF" d="M476.3,284.6c-1.1-0.4-2.1,0.1-2.5,1.2l-8.2,23.6c0,0.1,0,0.4,0.1,0.4c0.1,0.1,0.4,0,0.5-0.1l11.1-22.3
			c0-0.1,0.1-0.1,0.1-0.3C477.9,286.1,477.3,284.9,476.3,284.6z M475.9,286.6L475.9,286.6l-3.5,7.6c0,0,0,0-0.1,0c0,0,0,0,0-0.1
			l3-7.8c0-0.1,0.3-0.3,0.4-0.1C475.9,286.2,476,286.5,475.9,286.6z"/>
		<path fill="#FFFFFF" d="M491,250.4c0,0-8.3,6.2-12.6,16.4c-0.9,2.1-1.5,4.2-2,6.2c-1.7,1.5-3.5,3.4-5.1,5.5
			c-1.7,2.4-3.1,4.8-4.2,7.2c-0.3,0.5,0.4,0.9,0.8,0.5c2.5-2.5,5.2-4.4,7.4-5.6c0,0.7,0,1.3-0.1,2l0,0l0,0c0,0,0,0,0.1,0l0,0h0.1
			c0,0,0,0,0.1,0c0.1,0,0.1,0,0.3,0l0,0c0.1,0,0.1,0,0.3,0h0.1c0.1,0,0.1,0,0.3,0h0.1c0.1,0,0.1,0,0.3,0h0.1c0.1,0,0.3,0.1,0.4,0.1
			c1.1,0.5,1.5,1.6,1.5,1.6c0.3-0.3,0.7-0.7,0.9-1.1c0.4,2.3,0.8,5.2,0.8,8.6c0,0.5,0.7,0.7,0.9,0.1c0.9-2.4,2.1-5,2.7-7.8
			c0.4-2.4,0.5-4.8,0.4-7c1.2-1.9,2.4-3.9,3.4-6.2C492.4,260.7,491,250.4,491,250.4z M483.4,264.1c0.3-0.7,1.1-1.2,1.9-1.1l0,0l0,0
			l0,0c0.1,0,0.3,0,0.4,0.1l-1.3,3.2C483.4,265.9,483,265,483.4,264.1z M486.9,270.4c-2.1,5-5.2,9-7.8,11.7
			c-0.3-0.3-0.7-0.5-1.1-0.7c2-4.8,4-9.7,5.9-14.1l0,0c0.3,0.1,0.4,0.1,0.7,0.1c1.2,0.1,2.3-0.4,2.8-1.6c0.5-1.3,0-2.8-1.3-3.5l0,0
			c1.5-3.5,2.8-6.6,3.9-9.3C490,256.7,489.7,263.5,486.9,270.4z"/>
	</g>
</g>
</svg>
