<?xml version="1.0" encoding="utf-8"?>
<!-- Generator: Adobe Illustrator 18.0.0, SVG Export Plug-In . SVG Version: 6.00 Build 0)  -->
<!DOCTYPE svg PUBLIC "-//W3C//DTD SVG 1.1//EN" "http://www.w3.org/Graphics/SVG/1.1/DTD/svg11.dtd">
<svg version="1.1" id="Layer_1" xmlns="http://www.w3.org/2000/svg" xmlns:xlink="http://www.w3.org/1999/xlink" x="0px" y="0px"
	 viewBox="0 0 109.9 109.9" enable-background="new 0 0 109.9 109.9" xml:space="preserve">
<g>
	<path fill="#A00000" d="M55,107.9c-29.2,0-53-23.8-53-53S25.7,2,55,2s53,23.8,53,53S84.2,107.9,55,107.9z M55,8.6
		C29.4,8.6,8.6,29.4,8.6,55s20.8,46.4,46.4,46.4s46.4-20.8,46.4-46.4S80.5,8.6,55,8.6z"/>
	<path fill="#A00000" d="M37.3,53.4c3.6-6.8,8.1-10.1,12.7-10.1c7.1,0,10.6,5.4,10.6,13c0,11.2-9,24.6-22.3,24.6
		c-9.4,0-14.3-5.4-14.3-13.4c0-3.1,1-7.7,2.6-13.8L33.8,27L44,27.1h0.8L37.3,53.4z M34.7,69.5c0,4,1.7,5.9,4.1,5.9
		c6.2,0,10.3-12.8,10.3-19c0-4.1-1.5-6-3.9-6C39.6,50.5,34.7,62.2,34.7,69.5z"/>
	<path fill="#A00000" d="M63.9,43.9l9.4-0.3c0,0-0.8,4.5-1.8,7.9c0,0,3.8-8.1,12.7-7.8c3.7,0.1,6.6,2.8,6.6,6.8c0,4.2-4.1,9.4-9.8,7
		c-0.2-0.1-0.5-0.4-0.3-0.6c1.1-1.7,1.9-3.7,1.5-5.2c-0.2-0.8-0.9-1.4-2.3-1.3c-4.7,0.5-8.7,6-13.7,30.1H54.8L63.9,43.9z"/>
</g>
</svg>
