<?xml version="1.0" encoding="utf-8"?>
<!-- Generator: Adobe Illustrator 18.0.0, SVG Export Plug-In . SVG Version: 6.00 Build 0)  -->
<!DOCTYPE svg PUBLIC "-//W3C//DTD SVG 1.1//EN" "http://www.w3.org/Graphics/SVG/1.1/DTD/svg11.dtd">
<svg version="1.1" id="Layer_1" xmlns="http://www.w3.org/2000/svg" xmlns:xlink="http://www.w3.org/1999/xlink" x="0px" y="0px"
	 viewBox="441.7 241.5 77.1 77" enable-background="new 441.7 241.5 77.1 77" xml:space="preserve">
<g>
	<path fill="#A00000" d="M480.3,317.5c-20.7,0-37.5-16.8-37.5-37.5s16.8-37.4,37.5-37.4c20.7,0,37.5,16.8,37.5,37.5
		C517.8,300.7,500.9,317.5,480.3,317.5z M480.3,247.2c-18.1,0-32.8,14.7-32.8,32.8c0,18.1,14.7,32.8,32.8,32.8
		c18.1,0,32.8-14.7,32.8-32.8C513.1,261.9,498.3,247.2,480.3,247.2z"/>
	<path fill="#A00000" d="M467.7,278.9c2.5-4.8,5.7-7.1,9-7.1c5,0,7.5,3.8,7.5,9.2c0,7.9-6.4,17.4-15.8,17.4
		c-6.7,0-10.1-3.8-10.1-9.5c0-2.2,0.7-5.4,1.8-9.8l5.1-18.9l7.2,0.1h0.6L467.7,278.9z M465.9,290.3c0,2.8,1.2,4.2,2.9,4.2
		c4.4,0,7.3-9.1,7.3-13.4c0-2.9-1.1-4.2-2.8-4.2C469.4,276.9,465.9,285.1,465.9,290.3z"/>
	<path fill="#A00000" d="M486.6,272.2l6.7-0.2c0,0-0.6,3.2-1.3,5.6c0,0,2.7-5.7,9-5.5c2.6,0.1,4.7,2,4.7,4.8c0,3-2.9,6.7-6.9,5
		c-0.1-0.1-0.4-0.3-0.2-0.4c0.8-1.2,1.3-2.6,1.1-3.7c-0.1-0.6-0.6-1-1.6-0.9c-3.3,0.4-6.2,4.2-9.7,21.3h-8.1L486.6,272.2z"/>
</g>
</svg>
