<?xml version="1.0" encoding="utf-8"?>
<!-- Generator: Adobe Illustrator 18.0.0, SVG Export Plug-In . SVG Version: 6.00 Build 0)  -->
<!DOCTYPE svg PUBLIC "-//W3C//DTD SVG 1.1//EN" "http://www.w3.org/Graphics/SVG/1.1/DTD/svg11.dtd">
<svg version="1.1" id="Layer_1" xmlns="http://www.w3.org/2000/svg" xmlns:xlink="http://www.w3.org/1999/xlink" x="0px" y="0px"
	 viewBox="0 0 141.3 141.3" enable-background="new 0 0 141.3 141.3" xml:space="preserve">
<g>
	<g>
		<path fill="#FF151F" d="M70.7,139C33,139,2.3,108.4,2.3,70.7S33,2.3,70.7,2.3S139,33,139,70.7S108.4,139,70.7,139z M70.7,10.8
			c-33,0-59.8,26.8-59.8,59.8s26.8,59.8,59.8,59.8s59.8-26.8,59.8-59.8S103.7,10.8,70.7,10.8z"/>
		<path fill="#FF151F" d="M47.9,68.6c4.7-8.7,10.4-13.1,16.4-13.1c9.1,0,13.7,7,13.7,16.7C78,86.8,66.4,104,49.2,104
			c-12.2,0-18.5-7-18.5-17.2c0-4.1,1.3-10,3.4-17.8l9.3-34.4l13.2,0.1h1.1L47.9,68.6z M44.6,89.4c0,5.1,2.2,7.6,5.2,7.6
			c8,0,13.3-16.5,13.3-24.5c0-5.3-1.9-7.7-5.1-7.7C50.9,64.9,44.6,80,44.6,89.4z"/>
		<path fill="#FF151F" d="M82.1,56.4l12.2-0.3c0,0-1,5.8-2.3,10.3c0,0,5-10.4,16.4-10.1c4.8,0.1,8.5,3.7,8.5,8.8
			c0,5.4-5.3,12.2-12.7,9c-0.3-0.1-0.6-0.5-0.4-0.8c1.5-2.2,2.4-4.7,1.9-6.8c-0.2-1-1.2-1.9-3-1.6c-6,0.7-11.3,7.7-17.7,38.9H70.5
			L82.1,56.4z"/>
	</g>
</g>
</svg>
