<?xml version="1.0" encoding="utf-8"?>
<!-- Generator: Adobe Illustrator 18.0.0, SVG Export Plug-In . SVG Version: 6.00 Build 0)  -->
<!DOCTYPE svg PUBLIC "-//W3C//DTD SVG 1.1//EN" "http://www.w3.org/Graphics/SVG/1.1/DTD/svg11.dtd">
<svg version="1.1" id="Layer_1" xmlns="http://www.w3.org/2000/svg" xmlns:xlink="http://www.w3.org/1999/xlink" x="0px" y="0px"
	 viewBox="0 0 42.2 42.2" enable-background="new 0 0 42.2 42.2" xml:space="preserve">
<g>
	<path fill="#D61C24" d="M2.2,21.1c0-10.4,8.5-18.9,18.9-18.9S40,10.7,40,21.1S31.5,40,21.1,40S2.2,31.5,2.2,21.1z M36,21.1
		c0-8.2-6.7-14.9-14.9-14.9S6.2,12.9,6.2,21.1S12.9,36,21.1,36S36,29.3,36,21.1z"/>
	<path fill="#D61C24" d="M30.7,18.7v-2.2c0-1-1.2-1.5-1.9-0.8l-7.5,7.2c-0.4,0.4-1.1,0.4-1.5,0L12.7,16c-0.7-0.7-1.9-0.2-1.9,0.8
		v2.2c0,0.3,0.1,0.6,0.3,0.8l8.7,8.3c0.4,0.4,1.1,0.4,1.5,0l9-8.7C30.6,19.3,30.7,19,30.7,18.7z"/>
</g>
</svg>
