<?xml version="1.0" encoding="utf-8"?>
<!-- Generator: Adobe Illustrator 18.0.0, SVG Export Plug-In . SVG Version: 6.00 Build 0)  -->
<!DOCTYPE svg PUBLIC "-//W3C//DTD SVG 1.1//EN" "http://www.w3.org/Graphics/SVG/1.1/DTD/svg11.dtd">
<svg version="1.1" id="Layer_1" xmlns="http://www.w3.org/2000/svg" xmlns:xlink="http://www.w3.org/1999/xlink" x="0px" y="0px"
	 viewBox="0 0 53.3 53.3" enable-background="new 0 0 53.3 53.3" xml:space="preserve">
<path fill="#9E1C20" d="M26.6,0.6c-14.4,0-26,11.7-26,26c0,14.4,11.7,26,26,26c14.4,0,26-11.7,26-26C52.7,12.3,41,0.6,26.6,0.6z
	 M31.5,19.8h-2.2c-0.5,0-0.8,0.1-0.8,0.4v2.6h3.3c-0.1,2-0.4,4-0.4,4h-2.9v11h-5v-11h-2v-4h2v-3c0-0.6,0.2-4,4.9-4h3.1V19.8z"/>
</svg>
