<?xml version="1.0" encoding="utf-8"?>
<!-- Generator: Adobe Illustrator 18.0.0, SVG Export Plug-In . SVG Version: 6.00 Build 0)  -->
<!DOCTYPE svg PUBLIC "-//W3C//DTD SVG 1.1//EN" "http://www.w3.org/Graphics/SVG/1.1/DTD/svg11.dtd">
<svg version="1.1" id="Layer_1" xmlns="http://www.w3.org/2000/svg" xmlns:xlink="http://www.w3.org/1999/xlink" x="0px" y="0px"
	 viewBox="0 0 53.3 53.3" enable-background="new 0 0 53.3 53.3" xml:space="preserve">
<path fill="#A00000" d="M26.6,0.5c-14.4,0-26,11.7-26,26s11.7,26,26,26c14.4,0,26-11.7,26-26S41,0.5,26.6,0.5z M18.4,33.5
	c-3.8,0-6.9-3.1-6.9-6.9s3.1-6.9,6.9-6.9s6.9,3.1,6.9,6.9S22.2,33.5,18.4,33.5z M34.9,33.5c-3.8,0-6.9-3.1-6.9-6.9s3.1-6.9,6.9-6.9
	s6.9,3.1,6.9,6.9S38.7,33.5,34.9,33.5z"/>
</svg>
