<?xml version="1.0" encoding="utf-8"?>
<!-- Generator: Adobe Illustrator 18.0.0, SVG Export Plug-In . SVG Version: 6.00 Build 0)  -->
<!DOCTYPE svg PUBLIC "-//W3C//DTD SVG 1.1//EN" "http://www.w3.org/Graphics/SVG/1.1/DTD/svg11.dtd">
<svg version="1.1" id="Layer_1" xmlns="http://www.w3.org/2000/svg" xmlns:xlink="http://www.w3.org/1999/xlink" x="0px" y="0px"
	 viewBox="0 0 126.6 126.6" enable-background="new 0 0 126.6 126.6" xml:space="preserve">
<g>
	<path fill-rule="evenodd" clip-rule="evenodd" fill="#FFFFFF" d="M45.3,52.2c4.9-0.8,4.8,8.1,4.1,12.9c-0.5,3.4-2,10-6.4,9.1
		c-2.4-0.5-3.1-4.6-3.1-8c0-4.9,1-11.1,3.6-13.2C43.9,52.6,44.6,52.3,45.3,52.2z"/>
	<path fill-rule="evenodd" clip-rule="evenodd" fill="#FFFFFF" d="M73.9,52.2c4.2-0.7,4.6,5.4,4.4,9.3c-0.2,3.6-0.8,7.6-2.1,10
		c-0.7,1.3-2.3,3.2-4.7,2.6c-2.7-0.7-3.2-5.9-3-10.1c0.2-4.1,1.3-8.5,2.8-10.2C71.9,53.1,72.8,52.4,73.9,52.2z"/>
	<path fill-rule="evenodd" clip-rule="evenodd" fill="#FFFFFF" d="M107.3,52.6c-0.9,6-1.8,12.7-5,16.5c-0.6,0.7-1.9,2-3.1,1.9
		c-1.8-0.1-2.2-3.1-2-5.6c0.3-3.9,2.2-8.8,4.7-11.1C103.1,53.1,104.9,52.2,107.3,52.6z"/>
	<path fill-rule="evenodd" clip-rule="evenodd" fill="#FFFFFF" d="M53.7,86c-0.9-0.1-2.1,0.1-2.8-0.1C50.8,84,54,83.9,53.7,86z"/>
	<path fill-rule="evenodd" clip-rule="evenodd" fill="#FFFFFF" d="M79.3,84.6c1.1,1,1.1,5.4-1.4,4.4C76.7,88,76.6,83.6,79.3,84.6z"
		/>
	<path fill-rule="evenodd" clip-rule="evenodd" fill="#FFFFFF" d="M103.9,37.4c0.1,0.7,0.3,1.1,0.4,1.7c1,0,2.5-0.9,3.8-0.7
		c0.6,3.9-0.3,8.3-0.7,11.9c-5.3-0.5-10,1.4-13.1,4.6c-3.1,3.1-5.5,7.2-5.9,12.5c-0.3,5.1,1.8,9.7,6.8,9.1c5.1-0.6,8.2-5.8,10.2-9.6
		c0.3,2.4-1.1,7.4,0.6,9.4c4.8,0.3,8.4-1.6,11.8-3c0-0.7-0.4-1-0.4-1.7c-1.3,0.2-2.5,1.1-3.8,1c-1-1.3-0.4-3-0.2-4.4
		c1.1-10.3,3-21.6,3.7-32.8c3.3,6.4,6,14,6.7,22.9c0.8,9.8-0.9,18.6-3.6,25.8c-5.2,14.2-14.9,25-27.1,32c-6.3,3.6-13.6,6.2-22.2,7.3
		c-9.1,1.2-18.6,0-26.2-2.4c-14.8-4.7-25.6-14.2-33-26.1c7.5-2.5,11.4-8.1,12.7-16.6c1.2-8.2,2-17.4,2.9-26c1.6,0,3.1,0,4.7,0
		c0.2-0.6,0.3-1.3,0.3-2.1c-0.9-0.1-3.1,0-4.7,0c0.6-5.8,1-11.8,4.8-14.5c1,0.9,1.5,2.5,3.1,3c1.8,0.6,4-0.1,4.1-1.9
		c0.1-2.4-3.1-3.3-5.1-3.3c-4.9-0.2-8.6,2.1-11,5c-2.5,3-3.6,7.1-4.2,11.7c-1.2,0-2.4,0-3.7,0c-0.2,0.6-0.3,1.3-0.3,2
		c1.4,0.3,2.1,0.1,3.7,0.1c-1.1,9.2-2,20.1-3.4,29.9c-0.6,4.5-1.5,9.2-5,10.7C6.7,86.3,3.9,78.8,3,69.6c-1-9.7,0.4-19.2,3.1-26.7
		C11.4,28.4,21.5,17,34.2,10c6.6-3.6,14.3-6.3,23.5-7.1c9.5-0.8,19,0.6,26.6,3.4c14.7,5.4,25.5,15.5,32.5,28.5
		c0.1,0,0.1,0.1,0.2,0.1C112.3,35,107.7,36,103.9,37.4z M40.5,51.5c-4.9,2.5-9.5,8.8-8.9,16.9c0.4,5,3.6,7.6,8.3,8
		c10.4,0.8,18.3-6.7,18.2-17.7c-0.1-6.7-4.7-9.4-11.8-8.8C43.8,50.2,42,50.7,40.5,51.5z M65.4,54.2c-3,2.9-5.8,8.7-5.1,15
		C61.2,78,73.9,78,80,73.4c4.3-3.2,7.3-9.3,6.7-15.9c-0.5-5.9-5.3-8.1-11.7-7.6C70.9,50.3,67.6,52,65.4,54.2z M90.9,90.5
		c0.6,0,1.3,0,1.9,0c-0.1-1.5-0.1-2.8,0.9-3.2c0.4,1.1,1.1,2.1,1.6,3.2c0.6,0,1.3,0,1.9,0c-0.6-1.7-1.6-3-2.2-4.7
		c0.6-0.9,1.4-1.7,2-2.7c-0.5-0.1-1.2,0.1-2,0c-0.7,0.8-1.4,2.1-2.1,2.6c0-1.8,0-3.6,0-5.4c-0.6,0-1.2,0-1.8,0
		C91,83.2,91.2,87.8,90.9,90.5z M58.7,83.1c-0.3,0.1-0.4,0.1-1,0.1c0,0.5,0,1,0,1.4c0.3,0.1,0.9-0.1,1,0.1c0,3.1-0.7,7,3.1,5.9
		c0.2-0.3,0.1-1,0.1-1.6c-0.4,0-1,0.3-1.3,0c-0.1-1-0.2-3.2,0-4.4c0.4,0,0.9,0,1.3,0c0.2-0.6-0.1-0.8,0.1-1.4
		c-0.5,0-1.2,0.1-1.6-0.1c0-0.8,0-1.6,0-2.3c-0.6,0-1.2,0-1.8,0C58.7,81.5,58.7,82.3,58.7,83.1z M45.7,83.5c-1-1-2.7-0.4-3.9,0.3
		c0.2-1.2-0.8-0.5-1.7-0.7c0,2.4,0,4.9,0,7.3c0.6,0,1.3,0,1.9,0c0-1.8,0-3.6,0-5.3c0.5-0.4,1-0.8,2-0.7c0.9,1.3,0.3,4,0.4,6
		c0.6,0,1.2,0,1.8,0C45.8,88.2,47,84.8,45.7,83.5z M49.6,84.5c-2.2,4.1,2.6,8.9,5.8,4.6c-0.5-0.2-0.9-0.6-1.3-0.8
		c-0.7,1.5-3.4,0.9-3.1-1.1c1.5,0,3,0,4.4,0C56.2,82.8,51,81.9,49.6,84.5z M79.8,90.5c2.3-0.9,2.7-5.8,0.4-7.1
		c-0.6-0.3-1.3-0.4-2.1-0.3C73.5,83.6,74.9,92.3,79.8,90.5z M88,83c-0.9,0.2-1.5,0.6-1.9,1.3c-0.1-0.4,0.1-1-0.1-1.2
		c-0.3,0.3-1.1,0-1.6,0.1c0,2.4,0,4.9,0,7.3c0.6,0,1.2,0,1.8,0c0.1-2.5-0.7-5.8,2-5.7C88.1,84.3,88.5,83.2,88,83z M69.5,83.2
		c-0.4-0.1-1,0.1-1.7,0c-0.4,1.4-0.6,3-1.1,4.3c-0.2-1.5-0.6-2.8-0.9-4.3c-0.6,0-1.2,0-1.8,0c0.6,2.4,1.3,4.9,1.9,7.3
		c0.6,0,1.1,0,1.7,0c0.4-1.5,0.6-3.1,1.1-4.4c0.2,1.6,0.7,3,1,4.4c0.6,0,1.1,0,1.7,0c0.6-2.5,1.2-4.9,1.9-7.3
		c-0.9,0.1-1.3-0.1-1.8,0c-0.4,1.4-0.5,3.1-1.1,4.2C70.2,85.9,69.8,84.6,69.5,83.2z"/>
</g>
</svg>
