<?xml version="1.0" encoding="utf-8"?>
<!-- Generator: Adobe Illustrator 18.0.0, SVG Export Plug-In . SVG Version: 6.00 Build 0)  -->
<!DOCTYPE svg PUBLIC "-//W3C//DTD SVG 1.1//EN" "http://www.w3.org/Graphics/SVG/1.1/DTD/svg11.dtd">
<svg version="1.1" id="Layer_1" xmlns="http://www.w3.org/2000/svg" xmlns:xlink="http://www.w3.org/1999/xlink" x="0px" y="0px"
	 viewBox="0 0 138.5 138.5" enable-background="new 0 0 138.5 138.5" xml:space="preserve">
<g>
	<g>
		<path fill="#FF151F" d="M69.2,137.8c-37.8,0-68.5-30.7-68.5-68.5S31.4,0.7,69.2,0.7s68.5,30.7,68.5,68.5S107,137.8,69.2,137.8z
			 M69.2,7.9C35.4,7.9,7.9,35.4,7.9,69.2s27.5,61.4,61.4,61.4s61.4-27.5,61.4-61.4S103.1,7.9,69.2,7.9z"/>
		<path fill="#FF151F" d="M108.6,88.2c0,0,1.5-2.7,2.8-7.3c1.3-4.1,2-8.4,2-12.9c0-6.6-1.5-12.9-4.3-18.4c-0.2-0.5-0.4-0.9-0.5-1.4
			c0,0-0.1,0-0.1,0c-0.9-1.7-2-3.4-3.1-4.9c0.1,0,0.1,0,0.2,0c0.9-0.2,1.6-1.1,1.4-2c-0.2-0.9-1.1-1.6-2-1.4c-0.7,0.1-1.3,0.3-2,0.4
			C95.2,31.6,84,26.1,71.4,26.1c-10,0-19.2,3.5-26.4,9.4L4.2,22.4L31,43.5l-9.3,5.3l9.5,7.5c-1.1,3.7-1.7,7.6-1.7,11.7
			c0,6.2,1.4,12,3.8,17.3c-0.8,0.1-1.6,0.6-2.1,1.3c-0.4,0.6-0.6,1.3-0.6,2c-0.8,0.4-1.5,1-2,1.7c-0.9,1.2-1.3,2.7-1.1,4.3
			c0.2,1.5,1,2.8,2.3,3.8C30.5,98.9,50,113,87.5,113c2.9,0,5.9-0.1,8.8-0.3c3.2-0.2,5.6-2.9,5.4-6c0-0.7-0.2-1.5-0.5-2.1
			c0.6-0.6,0.9-1.5,0.9-2.4c-0.1-1.5-1.2-2.7-2.6-3c0.9-0.8,1.7-1.6,2.5-2.5c0.4,0.1,0.8,0.2,1.2,0.3c0.1,0,0.2,0,0.3,0
			c0.8,0,1.5-0.6,1.7-1.4c0.1-0.7-0.2-1.4-0.8-1.8c1.4-1.8,2.7-3.7,3.8-5.7C108.4,88.2,108.6,88.2,108.6,88.2z M104.7,57.2
			c-0.3-0.8,0.1-1.7,0.8-2c0.8-0.3,1.7,0,2,0.8c0.2,0.5,4.8,11.9-0.4,24c-0.3,0.6-0.8,0.9-1.4,0.9c-0.2,0-0.4,0-0.6-0.1
			c-0.8-0.3-1.1-1.2-0.8-2C109,68,104.8,57.3,104.7,57.2z M71.4,29.5c10.9,0,20.7,4.5,27.7,11.8c-12.6,4-27.4,13.6-34.6,18.6
			c-1.1-0.8-2.2-1.4-3.5-1.7L45.4,45.7l11.4-6.5L49,36.7C55.3,32.2,63.1,29.5,71.4,29.5z M57.5,66.9c1.7,0,3,1.3,3,3
			c0,1.7-1.3,3-3,3s-3-1.3-3-3C54.5,68.3,55.8,66.9,57.5,66.9z M96.1,108.9c-2.9,0.2-5.8,0.2-8.6,0.2c-2.4,0-4.8-0.1-7-0.2
			c-1.5-0.1-2.9-0.2-4.2-0.3c-0.3,0-0.6,0-0.8-0.1c-0.6-0.1-1.1-0.1-1.7-0.2c-0.3,0-0.6-0.1-0.9-0.1c-0.6-0.1-1.1-0.1-1.6-0.2
			c-0.3,0-0.6-0.1-0.8-0.1c-1.8-0.2-3.6-0.5-5.3-0.8c-0.3,0-0.5-0.1-0.8-0.1c-0.5-0.1-0.9-0.2-1.4-0.3c-0.3-0.1-0.6-0.1-0.9-0.2
			c-0.4-0.1-0.9-0.2-1.3-0.3c-0.3-0.1-0.6-0.1-0.9-0.2c-0.4-0.1-0.8-0.2-1.2-0.3c-0.3-0.1-0.6-0.2-1-0.2c-0.7-0.2-1.3-0.3-1.9-0.5
			c-0.3-0.1-0.6-0.2-0.9-0.3c-0.3-0.1-0.7-0.2-1-0.3c-0.3-0.1-0.6-0.2-0.9-0.3c-0.3-0.1-0.6-0.2-0.9-0.3c-0.3-0.1-0.6-0.2-0.9-0.3
			c-0.3-0.1-0.6-0.2-0.9-0.3c-11.5-3.8-17.5-8.1-17.9-8.4c-0.4-0.3-0.7-0.7-0.7-1.2c-0.1-0.5,0-1,0.3-1.4c0.3-0.4,0.7-0.6,1.2-0.7
			c4.5,2.9,23.6,14,57.2,14c2.3,0,4.8-0.1,7.2-0.2c0.3,0.3,0.5,0.7,0.6,1.2C97.9,107.9,97.1,108.8,96.1,108.9z M93.8,99.3
			c-19.1,0.5-33.4-2.9-42.3-5.9c-6.2-2.1-10.6-4.4-13.2-5.8C34.9,81.8,33,75.2,33,68c0-3.2,0.4-6.4,1.2-9.3l11.3,8.9
			c-0.1,0.8-0.2,1.5-0.2,2.4c0,6.8,5.5,12.3,12.3,12.3c3.3,0,6.4-1.3,8.6-3.5c5.3,4.2,17.6,12.8,32,17C96.7,97,95.3,98.2,93.8,99.3z
			 M100.8,92.9C86.3,89.1,73.5,80.1,68.2,76c1-1.8,1.6-3.8,1.6-6c0-2.9-1-5.5-2.6-7.6c7.5-5.2,22.6-14.7,34.5-18.2
			c1.2,1.5,2.3,3.1,3.2,4.8c-8.5,2-28.8,8-28,20.7c0.8,12.4,19.3,16.7,27.7,18C103.4,89.6,102.1,91.3,100.8,92.9z"/>
	</g>
</g>
</svg>
