<?xml version="1.0" encoding="utf-8"?>
<!-- Generator: Adobe Illustrator 18.0.0, SVG Export Plug-In . SVG Version: 6.00 Build 0)  -->
<!DOCTYPE svg PUBLIC "-//W3C//DTD SVG 1.1//EN" "http://www.w3.org/Graphics/SVG/1.1/DTD/svg11.dtd">
<svg version="1.1" id="Layer_1" xmlns="http://www.w3.org/2000/svg" xmlns:xlink="http://www.w3.org/1999/xlink" x="0px" y="0px"
	 viewBox="0 0 110.6 110.6" enable-background="new 0 0 110.6 110.6" xml:space="preserve">
<g>
	<path fill="#A00000" d="M55.3,108.4C26,108.4,2.2,84.6,2.2,55.3S26,2.2,55.3,2.2s53.1,23.8,53.1,53.1S84.6,108.4,55.3,108.4z
		 M55.3,7.7C29.1,7.7,7.8,29.1,7.8,55.3s21.3,47.6,47.6,47.6s47.6-21.3,47.6-47.6S81.5,7.7,55.3,7.7z"/>
	<path fill="#A00000" d="M85.8,70c0,0,1.2-2.1,2.1-5.7c1-3.1,1.6-6.5,1.6-10c0-5.1-1.2-10-3.3-14.3c-0.1-0.3-0.3-0.7-0.4-1.1
		c0,0,0,0-0.1,0c-0.7-1.3-1.5-2.6-2.4-3.8c0,0,0.1,0,0.1,0c0.7-0.1,1.2-0.8,1.1-1.5c-0.1-0.7-0.8-1.2-1.5-1.1
		c-0.5,0.1-1,0.2-1.6,0.3c-6-6.7-14.7-11-24.4-11c-7.8,0-14.9,2.7-20.5,7.3L4.9,19l20.8,16.4l-7.2,4.1l7.3,5.8
		c-0.8,2.9-1.3,5.9-1.3,9c0,4.8,1,9.3,2.9,13.4c-0.6,0.1-1.2,0.4-1.7,1c-0.3,0.5-0.5,1-0.5,1.5c-0.6,0.3-1.1,0.7-1.5,1.3
		c-0.7,1-1,2.1-0.8,3.3c0.2,1.2,0.8,2.2,1.7,2.9c0.6,0.5,15.7,11.4,44.8,11.4c2.2,0,4.5-0.1,6.8-0.2c2.4-0.1,4.3-2.2,4.2-4.7
		c0-0.6-0.2-1.1-0.4-1.6c0.5-0.5,0.7-1.1,0.7-1.9c-0.1-1.2-0.9-2.1-2-2.3c0.7-0.6,1.3-1.2,2-1.9c0.3,0.1,0.6,0.1,0.9,0.2
		c0.1,0,0.2,0,0.3,0c0.6,0,1.2-0.4,1.3-1.1c0.1-0.6-0.1-1.1-0.6-1.4c1.1-1.4,2.1-2.8,2.9-4.4C85.7,70,85.8,70,85.8,70z M82.8,46
		c-0.3-0.6,0-1.3,0.7-1.6c0.6-0.3,1.3,0,1.6,0.6c0.2,0.4,3.7,9.3-0.3,18.6c-0.2,0.5-0.6,0.7-1.1,0.7c-0.2,0-0.3,0-0.5-0.1
		c-0.6-0.3-0.9-1-0.6-1.6C86.1,54.3,82.8,46.1,82.8,46z M57,24.5c8.4,0,16,3.5,21.5,9.2c-9.7,3.1-21.2,10.6-26.8,14.4
		C50.9,47.5,50,47,49,46.7l-12.2-9.6l8.9-5l-6-1.9C44.5,26.6,50.5,24.5,57,24.5z M46.2,53.5c1.3,0,2.3,1,2.3,2.3s-1,2.3-2.3,2.3
		s-2.3-1-2.3-2.3S44.9,53.5,46.2,53.5z M76.1,86c-2.2,0.1-4.5,0.2-6.7,0.2c-1.9,0-3.7,0-5.5-0.1c-1.1-0.1-2.2-0.1-3.3-0.2
		c-0.2,0-0.4,0-0.7-0.1c-0.4,0-0.9-0.1-1.3-0.1c-0.2,0-0.5,0-0.7-0.1c-0.4,0-0.9-0.1-1.3-0.1c-0.2,0-0.4-0.1-0.7-0.1
		c-1.4-0.2-2.8-0.4-4.1-0.6c-0.2,0-0.4-0.1-0.6-0.1c-0.4-0.1-0.7-0.1-1.1-0.2c-0.2,0-0.5-0.1-0.7-0.1c-0.3-0.1-0.7-0.1-1-0.2
		c-0.2-0.1-0.5-0.1-0.7-0.2c-0.3-0.1-0.6-0.1-1-0.2c-0.3-0.1-0.5-0.1-0.7-0.2c-0.5-0.1-1-0.3-1.5-0.4C44.5,83.1,44.2,83,44,83
		c-0.3-0.1-0.5-0.1-0.8-0.2c-0.2-0.1-0.5-0.1-0.7-0.2c-0.2-0.1-0.5-0.1-0.7-0.2c-0.2-0.1-0.5-0.1-0.7-0.2c-0.2-0.1-0.4-0.1-0.7-0.2
		c-8.9-2.9-13.6-6.3-13.9-6.5c-0.3-0.2-0.5-0.6-0.6-0.9c-0.1-0.4,0-0.8,0.3-1.1c0.2-0.3,0.5-0.5,0.9-0.6
		c3.5,2.3,18.3,10.9,44.3,10.9c1.8,0,3.7-0.1,5.6-0.1c0.3,0.2,0.4,0.6,0.4,0.9C77.5,85.3,76.9,86,76.1,86z M74.3,78.6
		C59.5,79,48.4,76.4,41.6,74c-4.8-1.6-8.2-3.4-10.2-4.5c-2.6-4.4-4.2-9.6-4.2-15.2c0-2.5,0.3-4.9,0.9-7.2l8.7,6.9
		c-0.1,0.6-0.2,1.2-0.2,1.8c0,5.3,4.3,9.5,9.5,9.5c2.6,0,4.9-1,6.7-2.7c4.1,3.2,13.6,9.9,24.8,13.2C76.6,76.8,75.5,77.8,74.3,78.6z
		 M79.7,73.6c-11.2-2.9-21.1-9.9-25.3-13.1c0.8-1.4,1.2-3,1.2-4.7c0-2.2-0.8-4.2-2-5.9c5.8-4,17.5-11.4,26.7-14.1
		c0.9,1.2,1.8,2.4,2.5,3.7c-6.6,1.5-22.3,6.2-21.7,16.1c0.6,9.6,14.9,13,21.4,14C81.8,71,80.8,72.4,79.7,73.6z"/>
</g>
</svg>
