<?xml version="1.0" encoding="utf-8"?>
<!-- Generator: Adobe Illustrator 18.0.0, SVG Export Plug-In . SVG Version: 6.00 Build 0)  -->
<!DOCTYPE svg PUBLIC "-//W3C//DTD SVG 1.1//EN" "http://www.w3.org/Graphics/SVG/1.1/DTD/svg11.dtd">
<svg version="1.1" id="Layer_1" xmlns="http://www.w3.org/2000/svg" xmlns:xlink="http://www.w3.org/1999/xlink" x="0px" y="0px"
	 viewBox="0 0 77 77" enable-background="new 0 0 77 77" xml:space="preserve">
<g>
	<path fill="#D51C24" d="M38.5,76.6c-21,0-38.1-17.1-38.1-38.1S17.5,0.4,38.5,0.4s38.1,17.1,38.1,38.1S59.5,76.6,38.5,76.6z
		 M38.5,4.4C19.7,4.4,4.4,19.7,4.4,38.5s15.3,34.1,34.1,34.1s34.1-15.3,34.1-34.1S57.3,4.4,38.5,4.4z"/>
	<path fill="#D51C24" d="M60.4,49.1c0,0,0.8-1.5,1.5-4.1c0.7-2.3,1.1-4.7,1.1-7.2c0-3.7-0.9-7.2-2.4-10.3c-0.1-0.3-0.2-0.5-0.3-0.8
		c0,0,0,0-0.1,0c-0.5-1-1.1-1.9-1.7-2.7c0,0,0.1,0,0.1,0c0.5-0.1,0.9-0.6,0.8-1.1c-0.1-0.5-0.6-0.9-1.1-0.8
		c-0.4,0.1-0.7,0.1-1.1,0.2c-4.3-4.8-10.5-7.9-17.5-7.9c-5.6,0-10.7,2-14.7,5.2L2.3,12.4l14.9,11.8l-5.2,3l5.3,4.2
		c-0.6,2.1-0.9,4.2-0.9,6.5c0,3.4,0.8,6.7,2.1,9.6c-0.5,0.1-0.9,0.3-1.2,0.7c-0.2,0.3-0.4,0.7-0.3,1.1c-0.4,0.2-0.8,0.5-1.1,0.9
		c-0.5,0.7-0.7,1.5-0.6,2.4c0.1,0.8,0.6,1.6,1.3,2.1c0.5,0.3,11.3,8.2,32.1,8.2c1.6,0,3.3,0,4.9-0.1c1.8-0.1,3.1-1.6,3-3.4
		c0-0.4-0.1-0.8-0.3-1.2c0.3-0.3,0.5-0.8,0.5-1.3c0-0.8-0.7-1.5-1.5-1.7c0.5-0.4,1-0.9,1.4-1.4c0.2,0,0.4,0.1,0.7,0.1
		c0.1,0,0.1,0,0.2,0c0.4,0,0.8-0.3,0.9-0.8c0.1-0.4-0.1-0.8-0.4-1c0.8-1,1.5-2,2.1-3.2C60.3,49,60.4,49.1,60.4,49.1z M58.2,31.8
		c-0.2-0.4,0-0.9,0.5-1.1c0.4-0.2,0.9,0,1.1,0.5c0.1,0.3,2.7,6.6-0.2,13.3c-0.1,0.3-0.5,0.5-0.8,0.5c-0.1,0-0.2,0-0.3-0.1
		c-0.4-0.2-0.6-0.7-0.4-1.1C60.6,37.8,58.2,31.9,58.2,31.8z M39.7,16.4c6,0,11.5,2.5,15.4,6.6c-7,2.2-15.2,7.6-19.2,10.3
		c-0.6-0.4-1.2-0.8-2-1l-8.7-6.9l6.4-3.6l-4.3-1.4C30.8,17.9,35.1,16.4,39.7,16.4z M31.9,37.2c0.9,0,1.7,0.7,1.7,1.7
		s-0.8,1.7-1.7,1.7s-1.7-0.7-1.7-1.7S31,37.2,31.9,37.2z M53.4,60.5c-1.6,0.1-3.2,0.1-4.8,0.1c-1.3,0-2.7,0-3.9-0.1
		c-0.8,0-1.6-0.1-2.4-0.2c-0.2,0-0.3,0-0.5,0c-0.3,0-0.6-0.1-0.9-0.1c-0.2,0-0.3,0-0.5-0.1c-0.3,0-0.6-0.1-0.9-0.1
		c-0.2,0-0.3,0-0.5-0.1c-1-0.1-2-0.3-2.9-0.4c-0.2,0-0.3-0.1-0.5-0.1c-0.3,0-0.5-0.1-0.8-0.1c-0.2,0-0.3-0.1-0.5-0.1
		c-0.2,0-0.5-0.1-0.7-0.1c-0.2,0-0.3-0.1-0.5-0.1c-0.2-0.1-0.5-0.1-0.7-0.2c-0.2,0-0.4-0.1-0.5-0.1c-0.4-0.1-0.7-0.2-1.1-0.3
		c-0.2,0-0.4-0.1-0.5-0.1c-0.2-0.1-0.4-0.1-0.6-0.2c-0.2,0-0.3-0.1-0.5-0.1c-0.2-0.1-0.4-0.1-0.5-0.2c-0.2-0.1-0.3-0.1-0.5-0.2
		c-0.2-0.1-0.3-0.1-0.5-0.2c-6.4-2.1-9.7-4.5-10-4.7c-0.2-0.2-0.4-0.4-0.4-0.7c0-0.3,0-0.5,0.2-0.8c0.2-0.2,0.4-0.4,0.7-0.4
		c2.5,1.6,13.1,7.8,31.8,7.8c1.3,0,2.6,0,4-0.1c0.2,0.2,0.3,0.4,0.3,0.7C54.4,60,54,60.5,53.4,60.5z M52.1,55.2
		c-10.6,0.3-18.6-1.6-23.5-3.3c-3.4-1.2-5.9-2.4-7.3-3.2c-1.9-3.2-3-6.9-3-10.9c0-1.8,0.2-3.5,0.6-5.2l6.3,5
		c-0.1,0.4-0.1,0.9-0.1,1.3c0,3.8,3.1,6.8,6.8,6.8c1.9,0,3.5-0.7,4.8-2c3,2.3,9.8,7.1,17.8,9.5C53.8,53.9,53,54.6,52.1,55.2z
		 M56,51.7c-8.1-2.1-15.1-7.1-18.1-9.4c0.6-1,0.9-2.1,0.9-3.4c0-1.6-0.5-3-1.5-4.2c4.2-2.9,12.5-8.2,19.2-10.1
		c0.7,0.8,1.3,1.7,1.8,2.7c-4.7,1.1-16,4.4-15.6,11.5c0.4,6.9,10.7,9.3,15.4,10C57.5,49.8,56.8,50.8,56,51.7z"/>
</g>
</svg>
