<?xml version="1.0" encoding="utf-8"?>
<!-- Generator: Adobe Illustrator 18.0.0, SVG Export Plug-In . SVG Version: 6.00 Build 0)  -->
<!DOCTYPE svg PUBLIC "-//W3C//DTD SVG 1.1//EN" "http://www.w3.org/Graphics/SVG/1.1/DTD/svg11.dtd">
<svg version="1.1" id="Layer_1" xmlns="http://www.w3.org/2000/svg" xmlns:xlink="http://www.w3.org/1999/xlink" x="0px" y="0px"
	 viewBox="0 0 121.6 98" enable-background="new 0 0 121.6 98" xml:space="preserve">
<g>
	<path fill="#FFFFFF" d="M14.7,64.3v16.9l8.6-8.2L14.7,64.3z M3.1,92.3l8-7.6V60.6l-8-8V92.3z"/>
	<polygon fill="#FFFFFF" points="110.3,88 13.5,88 6.1,95.6 118.6,95.6 	"/>
	<polygon fill="#FFFFFF" points="97.7,10.9 108.4,2.6 67.9,2.6 78.7,11.3 78.7,29.6 78.7,29.6 50.7,29.6 50.7,11.4 61.4,2.6 
		61.4,2.6 21,2.6 42,10.2 42,10.1 21.2,2.5 31.7,10.8 31.7,74.4 21.2,82.9 42.1,75.2 42,75.1 21,82.6 61.4,82.6 50.7,73.9 
		50.7,45.4 42,36.4 50.7,45.5 78.8,45.5 78.9,74 67.9,82.8 87.7,75.1 87.7,75.1 67.9,82.8 108.2,82.9 97.7,74.4 	"/>
</g>
</svg>
