<?xml version="1.0" encoding="utf-8"?>
<!-- Generator: Adobe Illustrator 18.0.0, SVG Export Plug-In . SVG Version: 6.00 Build 0)  -->
<!DOCTYPE svg PUBLIC "-//W3C//DTD SVG 1.1//EN" "http://www.w3.org/Graphics/SVG/1.1/DTD/svg11.dtd">
<svg version="1.1" id="Layer_1" xmlns="http://www.w3.org/2000/svg" xmlns:xlink="http://www.w3.org/1999/xlink" x="0px" y="0px"
	 viewBox="0 0 243.8 136.3" enable-background="new 0 0 243.8 136.3" xml:space="preserve">
<g>
	<g>
		<path fill-rule="evenodd" clip-rule="evenodd" fill="#FFFFFF" d="M104.6,135.4l-83.2-0.3c0,0-23.7-2.7-19.1-30.2
			c0,0,5.3-23.4,27.7-19.9c0,0,8,1,23.1,13.5L104.6,135.4z"/>
		<path fill-rule="evenodd" clip-rule="evenodd" fill="#FFFFFF" d="M105.5,129.7L34.5,78.2c0,0-15-11.4-5.4-33.2
			c0,0,5.1-11.9,20.8-12.3c0,0,17-0.5,22.8,16.8L105.5,129.7z"/>
		<path fill-rule="evenodd" clip-rule="evenodd" fill="#FFFFFF" d="M139.2,134.4l83.2-0.3c0,0,23.7-2.7,19.1-30.2
			c0,0-5.3-23.4-27.7-19.9c0,0-8,1-23.1,13.5L139.2,134.4z"/>
		<path fill-rule="evenodd" clip-rule="evenodd" fill="#FFFFFF" d="M138.3,128.7l70.9-51.5c0,0,15-11.4,5.4-33.2
			c0,0-5.1-11.9-20.8-12.3c0,0-15.8-0.5-22.8,16.8L138.3,128.7z"/>
		<path fill-rule="evenodd" clip-rule="evenodd" fill="#FFFFFF" d="M106.8,120.2L71.2,34.1c0,0-6.2-14.5,9-27.6
			c0,0,17.2-12.9,29.5,0.7c0,0,11.4,11,6.1,44.5L106.8,120.2z"/>
		<path fill-rule="evenodd" clip-rule="evenodd" fill="#FFFFFF" d="M136.8,120.1l-11.1-74.8c0,0-1.9-9.1,8.8-14.8l-10.3-1.3
			c0,0-1.9-24.3,21.7-28.2c0,0,18.2-2.8,25.6,18.2c0,0,3,8.5-4.4,25.3L136.8,120.1z"/>
	</g>
</g>
</svg>
