<?xml version="1.0" encoding="utf-8"?>
<!-- Generator: Adobe Illustrator 18.0.0, SVG Export Plug-In . SVG Version: 6.00 Build 0)  -->
<!DOCTYPE svg PUBLIC "-//W3C//DTD SVG 1.1//EN" "http://www.w3.org/Graphics/SVG/1.1/DTD/svg11.dtd">
<svg version="1.1" id="Layer_1" xmlns="http://www.w3.org/2000/svg" xmlns:xlink="http://www.w3.org/1999/xlink" x="0px" y="0px"
	 viewBox="0 0 251.5 79.5" enable-background="new 0 0 251.5 79.5" xml:space="preserve">
<g>
	<g>
		<g>
			<path fill="#FFFFFF" d="M82.3,1.7v76.1h76.2V1.7H82.3z M133.7,54.8c-3.4,3.4-8.1,5.2-14.1,5.2c-2.9,0-5.5-0.6-7.8-1.7v16.2h-9.1
				V20.1h9.1v2.6c2.3-2.2,5.1-3.3,8.4-3.3c12.4,0,18.7,6.8,18.7,20.5C138.9,46.4,137.2,51.3,133.7,54.8z"/>
			<path fill="#FFFFFF" d="M117.6,27.3c-2.2,0-4.1,0.8-5.8,2.5v20.5c1.6,1.3,3.6,2,5.8,2c4.2,0,7.2-1,9-3c1.8-2,2.7-5.2,2.7-9.5
				c0-4.6-0.9-7.8-2.7-9.7C124.8,28.2,121.8,27.3,117.6,27.3z"/>
		</g>
		<path fill="#FFFFFF" d="M159.3,1.7v76.1h76.1V1.7H159.3z M207.4,28.7c-1.6-1-3.4-1.5-5.3-1.5c-2.1,0-4,1-5.6,2.9
			c-1.6,1.9-2.5,4.2-2.5,7v22.1h-9.1v-39h9.1v3.7c2.5-2.9,5.9-4.4,10.1-4.4c3.1,0,5.5,0.5,7.1,1.4L207.4,28.7z"/>
		<path fill="#FFFFFF" d="M246.2,5.8c0,2.3-1.8,4.1-4.1,4.1c-2.3,0-4.1-1.8-4.1-4.1c0-2.3,1.8-4.1,4.1-4.1
			C244.5,1.7,246.2,3.5,246.2,5.8 M238.7,5.8c0,2,1.5,3.5,3.5,3.5c2,0,3.5-1.6,3.5-3.5c0-2-1.5-3.5-3.5-3.5
			C240.2,2.3,238.7,3.8,238.7,5.8 M241.2,8.2h-0.6V3.4h1.8c1.1,0,1.5,0.5,1.5,1.3c0,0.8-0.6,1.2-1.2,1.3l1.4,2.1h-0.7L242.2,6h-1
			V8.2z M242,5.6c0.7,0,1.4,0,1.4-0.8c0-0.7-0.6-0.8-1.1-0.8h-1.1v1.6H242z"/>
		<g>
			<path fill="#FFFFFF" d="M5.3,1.7v76.1h76.1V1.7H5.3z M60.6,59.2h-9.1V36.7c0-3.3-0.6-5.7-1.9-7.3c-1.3-1.5-3.4-2.3-6.3-2.3
				c-1.3,0-2.8,0.4-4.3,1.1c-1.5,0.8-2.7,1.7-3.6,2.8v28.1h-9.1v-39H33l1.7,3.6c2.5-2.9,6.1-4.3,11-4.3c4.6,0,8.3,1.4,11,4.2
				c2.7,2.8,4,6.7,4,11.6V59.2z"/>
		</g>
	</g>
</g>
</svg>
