<?xml version="1.0" encoding="utf-8"?>
<!-- Generator: Adobe Illustrator 18.0.0, SVG Export Plug-In . SVG Version: 6.00 Build 0)  -->
<!DOCTYPE svg PUBLIC "-//W3C//DTD SVG 1.1//EN" "http://www.w3.org/Graphics/SVG/1.1/DTD/svg11.dtd">
<svg version="1.1" id="Layer_1" xmlns="http://www.w3.org/2000/svg" xmlns:xlink="http://www.w3.org/1999/xlink" x="0px" y="0px"
	 viewBox="0 0 138.9 211.3" enable-background="new 0 0 138.9 211.3" xml:space="preserve">
<g>
	<g>
		<g>
			<path fill="#FF151F" d="M46.1,168.4c-11.6-5.1-21.2-13.7-27.5-25c-7.6-13.6-9.4-29.3-5.1-44.2c6.3-22.3,25.2-38.4,47.6-41.7
				c1.1-3.5,2.3-6.8,3.7-10.1c-28.2,2-52.6,21.5-60.5,49.1c-9.7,33.9,8.4,69.3,40.7,81.8L46.1,168.4z"/>
			<path fill="#FF151F" d="M112.4,62.6c-0.6,3.6-1.5,7.1-2.4,10.7c14.9,14.5,21.5,36.4,15.5,57.7c-7.2,25.3-30.6,42.7-56.8,42.3
				c-1.5,0-2.9-0.1-4.4-0.2l-4.3,9.2c2.8,0.4,5.7,0.6,8.6,0.7c30.6,0.5,57.8-19.8,66.2-49.3C142.3,106.9,132.7,79.2,112.4,62.6z"/>
		</g>
		<path fill="#FF151F" d="M68.8,121.2c-3.5-0.8-7,1.5-7.8,5l-17.5,81.1c-0.1,0.6,0.2,1.2,0.8,1.4c0.6,0.2,1.3-0.1,1.5-0.7l27.8-78.2
			c0.1-0.3,0.2-0.5,0.2-0.8C74.6,125.5,72.3,122,68.8,121.2z M68.4,128.2C68.4,128.3,68.4,128.3,68.4,128.2l-8.3,26.5
			c0,0.1-0.1,0.2-0.3,0.1c-0.1,0-0.2-0.1-0.1-0.2l6.5-26.9c0.1-0.6,0.7-1,1.3-0.8C68.1,127,68.5,127.6,68.4,128.2z"/>
		<path fill="#FF151F" d="M103.4,2.5c0,0-25,23.8-35.1,59.2C66.3,68.9,65,76.1,64.3,83c-5.1,5.7-10.2,12.4-14.6,20.2
			c-4.8,8.5-8.2,17.3-10.6,25.5c-0.6,1.9,1.6,3.1,2.8,1.5c7.5-9.5,15.5-16.7,21.9-21.8c0.2,2.3,0.3,4.5,0.6,6.6c0,0,0.1,0,0.1-0.1
			c0,0,0.1,0,0.1-0.1c0.1,0,0.2-0.1,0.3-0.1c0.1,0,0.1-0.1,0.2-0.1c0.1-0.1,0.3-0.1,0.5-0.2c0.1,0,0.2-0.1,0.2-0.1
			c0.3-0.1,0.5-0.2,0.9-0.3c0,0,0,0,0,0c0.3-0.1,0.6-0.2,1-0.2c0.1,0,0.2,0,0.3-0.1c0.3,0,0.5-0.1,0.8-0.1c0.1,0,0.3,0,0.4,0
			c0.3,0,0.6,0,0.9,0c0.1,0,0.3,0,0.4,0c0.4,0.1,0.8,0.1,1.3,0.3c3.7,1.2,5.5,4.7,5.5,4.7c0.9-1.2,1.9-2.5,2.9-3.8
			c2.3,7.4,4.7,17,6,27.9c0.2,1.9,2.6,2,3.2,0.1c2.3-8.2,5.3-17.1,5.7-26.9c0.3-8.2-0.3-16-1.5-23.1c3.3-6.6,6.3-13.9,8.5-21.8
			C112.1,35.9,103.4,2.5,103.4,2.5z M83.6,50.8c0.7-2.5,3-4.3,5.7-4.2l0,0l0,0l0,0c0.3,0,0.9,0,1.5,0.2L87.6,58
			C84.5,57.1,82.7,53.9,83.6,50.8z M97.8,70c-4.9,17.2-13.5,31.6-20.8,41.7c-1.1-0.8-2.3-1.5-3.8-2c4.5-16.6,9.2-33.3,13.6-48.9
			c0,0,0,0,0,0c0.8,0.2,1.5,0.3,2.3,0.3c3.9,0.1,7.4-2.5,8.5-6.3c1.3-4.6-1.4-9.5-6-10.8c0,0,0,0,0,0c3.4-11.9,6.5-22.8,9.2-32
			C102.5,23.8,104.5,46.5,97.8,70z"/>
	</g>
</g>
</svg>
