<?xml version="1.0" encoding="utf-8"?>
<!-- Generator: Adobe Illustrator 18.0.0, SVG Export Plug-In . SVG Version: 6.00 Build 0)  -->
<!DOCTYPE svg PUBLIC "-//W3C//DTD SVG 1.1//EN" "http://www.w3.org/Graphics/SVG/1.1/DTD/svg11.dtd">
<svg version="1.1" id="Layer_1" xmlns="http://www.w3.org/2000/svg" xmlns:xlink="http://www.w3.org/1999/xlink" x="0px" y="0px"
	 viewBox="0 0 107.6 163.6" enable-background="new 0 0 107.6 163.6" xml:space="preserve">
<g>
	<g>
		<path fill="#A00000" d="M35.7,130.4c-9-3.9-16.4-10.6-21.3-19.4c-5.9-10.5-7.3-22.7-4-34.3C15.3,59.5,30,47,47.3,44.5
			c0.9-2.7,1.8-5.3,2.8-7.8C28.2,38.2,9.3,53.3,3.2,74.8c-7.5,26.3,6.5,53.7,31.6,63.4L35.7,130.4z"/>
		<path fill="#A00000" d="M87,48.4c-0.5,2.8-1.1,5.5-1.9,8.3c11.5,11.2,16.7,28.2,12,44.7c-5.6,19.6-23.7,33.1-44,32.8
			c-1.1,0-2.3-0.1-3.4-0.2l-3.4,7.1c2.2,0.3,4.4,0.5,6.6,0.5c23.7,0.4,44.8-15.3,51.3-38.2C110.2,82.8,102.7,61.3,87,48.4z"/>
	</g>
	<path fill="#A00000" d="M53.2,93.9c-2.7-0.6-5.4,1.2-6,3.9l-13.6,62.9c-0.1,0.4,0.2,0.9,0.6,1.1c0.5,0.2,1-0.1,1.2-0.6L57,100.5
		c0.1-0.2,0.1-0.4,0.2-0.6C57.7,97.1,56,94.5,53.2,93.9z M52.9,99.3C52.9,99.3,52.9,99.3,52.9,99.3l-6.4,20.6c0,0.1-0.1,0.1-0.2,0.1
		c-0.1,0-0.1-0.1-0.1-0.2l5-20.9c0.1-0.5,0.6-0.7,1-0.6C52.8,98.4,53,98.8,52.9,99.3z"/>
	<path fill="#A00000" d="M80.1,1.8c0,0-19.4,18.5-27.2,45.8c-1.6,5.7-2.6,11.2-3.1,16.5c-4,4.4-7.9,9.6-11.3,15.6
		c-3.7,6.6-6.3,13.4-8.2,19.7c-0.4,1.5,1.2,2.4,2.1,1.2c5.8-7.3,12-12.9,17-16.9c0.1,1.8,0.3,3.5,0.4,5.1c0,0,0,0,0.1-0.1
		c0,0,0.1,0,0.1,0c0.1,0,0.1-0.1,0.2-0.1c0,0,0.1,0,0.2-0.1c0.1,0,0.2-0.1,0.4-0.1c0.1,0,0.1-0.1,0.2-0.1c0.2-0.1,0.4-0.2,0.7-0.2
		c0,0,0,0,0,0c0.2-0.1,0.5-0.1,0.8-0.2c0.1,0,0.2,0,0.3,0c0.2,0,0.4-0.1,0.6-0.1c0.1,0,0.2,0,0.3,0c0.2,0,0.4,0,0.7,0
		c0.1,0,0.2,0,0.3,0c0.3,0,0.7,0.1,1,0.2c2.9,0.9,4.3,3.6,4.3,3.6c0.7-0.9,1.5-1.9,2.2-2.9c1.8,5.7,3.7,13.1,4.6,21.6
		c0.2,1.5,2,1.6,2.4,0.1c1.8-6.4,4.1-13.3,4.4-20.8c0.3-6.3-0.2-12.4-1.1-17.9c2.5-5.1,4.9-10.8,6.6-16.9
		C86.8,27.8,80.1,1.8,80.1,1.8z M64.7,39.3c0.6-2,2.4-3.3,4.4-3.3h0h0l0,0c0.3,0,0.7,0,1.2,0.2l-2.5,8.7
		C65.4,44.2,64.1,41.7,64.7,39.3z M75.7,54.2c-3.8,13.3-10.5,24.5-16.1,32.3c-0.8-0.6-1.8-1.2-2.9-1.5c3.5-12.9,7.1-25.8,10.5-37.9
		c0,0,0,0,0,0c0.6,0.2,1.2,0.3,1.8,0.3c3,0,5.8-1.9,6.6-4.9c1-3.6-1.1-7.3-4.7-8.4c0,0,0,0,0,0c2.6-9.2,5.1-17.7,7.1-24.8
		C79.4,18.4,80.9,36,75.7,54.2z"/>
</g>
</svg>
