<?xml version="1.0" encoding="utf-8"?>
<!-- Generator: Adobe Illustrator 18.0.0, SVG Export Plug-In . SVG Version: 6.00 Build 0)  -->
<!DOCTYPE svg PUBLIC "-//W3C//DTD SVG 1.1//EN" "http://www.w3.org/Graphics/SVG/1.1/DTD/svg11.dtd">
<svg version="1.1" id="Layer_1" xmlns="http://www.w3.org/2000/svg" xmlns:xlink="http://www.w3.org/1999/xlink" x="0px" y="0px"
	 viewBox="0 0 343 122.9" enable-background="new 0 0 343 122.9" xml:space="preserve">
<g>
	<path fill-rule="evenodd" clip-rule="evenodd" fill="#FAFAFA" d="M90.8,62.2c0-23.8,8.5-38.6,18.9-40.3C99.2,9.5,81.9,2.7,66.2,2.7
		c-17.3,0-33,7.2-43.9,19.3C32.8,24,36,32.9,36,46.1H23.6c0-8.1-1.6-12.1-6.4-12.1c-2,0-3.6,1.2-4.4,2.8c0,0.4-0.4,0.8-0.4,0.8
		c-0.4,1.2-0.8,2.4-0.8,3.6c0,16.1,27,15.3,27,40.7c0,9.7-7.6,18.9-16.1,18.9c11.3,12.1,26.2,19.3,43.9,19.3
		c16.9,0,32.2-7.2,43.1-18.9C99.2,98.9,90.8,84.8,90.8,62.2L90.8,62.2z M85.1,100.9H71.5V67.5H57v33.4H43.7V23.6H57V55h14.5V23.6
		h13.7V100.9L85.1,100.9z"/>
	<path fill-rule="evenodd" clip-rule="evenodd" fill="#FAFAFA" d="M19.1,88.8c3.6,0,6.4-3.6,6.4-8.5c0-9.7-8.9-11.7-18.1-20.1v3.2
		C7.8,78.6,13.1,88.8,19.1,88.8L19.1,88.8z"/>
	<path fill-rule="evenodd" clip-rule="evenodd" fill="#FAFAFA" d="M104.1,61c0-13.3,3.6-26.2,10.5-26.2C123,34.9,125,55,125,61.4
		c0,13.7-4.4,26.6-10.5,26.6C107.7,88,104.1,74.7,104.1,61L104.1,61z"/>
	<polygon fill-rule="evenodd" clip-rule="evenodd" fill="#FAFAFA" points="238.5,24.8 181.8,24.8 176.1,69.1 176.1,69.1 170.1,24.8 
		157.6,24.8 151.2,69.1 150.8,69.1 145.9,24.8 133.5,24.8 143.5,100.1 155.6,100.1 162.4,52.2 162.8,52.2 169.3,100.1 181.8,100.1 
		189.8,36.5 201.5,36.5 201.5,100.1 215.2,100.1 215.2,36.5 227.7,36.5 227.7,100.1 241.7,100.1 241.7,24.8 238.5,24.8 	"/>
	<polygon fill-rule="evenodd" clip-rule="evenodd" fill="#FAFAFA" points="248.2,24.8 266.7,24.8 272.7,63.5 272.7,63.5 279.2,24.8 
		297.3,24.8 297.3,100.1 284.8,100.1 284.8,44.9 284.8,44.9 275.6,100.1 267.9,100.1 258.6,44.9 258.2,44.9 258.2,100.1 
		248.2,100.1 248.2,24.8 	"/>
	<polygon fill-rule="evenodd" clip-rule="evenodd" fill="#FAFAFA" points="303.7,24.8 334.7,24.8 334.7,36.5 317.4,36.5 317.4,55.4 
		330.3,55.4 330.3,67.9 317.4,67.9 317.4,88.4 335.5,88.4 335.5,100.1 303.7,100.1 303.7,24.8 	"/>
</g>
</svg>
