<?xml version="1.0" encoding="utf-8"?>
<!-- Generator: Adobe Illustrator 18.0.0, SVG Export Plug-In . SVG Version: 6.00 Build 0)  -->
<!DOCTYPE svg PUBLIC "-//W3C//DTD SVG 1.1//EN" "http://www.w3.org/Graphics/SVG/1.1/DTD/svg11.dtd">
<svg version="1.1" id="Layer_1" xmlns="http://www.w3.org/2000/svg" xmlns:xlink="http://www.w3.org/1999/xlink" x="0px" y="0px"
	 viewBox="0 0 109.3 109.3" enable-background="new 0 0 109.3 109.3" xml:space="preserve">
<g>
	<g>
		<path fill="#A00000" d="M83.5,59.9c-1.4-1.8-3.1-3.7-4.9-5.5c1.8-1.8,3.5-3.7,4.9-5.5c5-6.5,6.5-12,4.2-15.5
			c-1-1.6-3.4-3.5-8.5-3.5c-3.3,0-7.4,0.8-11.9,2.3c-0.4-1.6-0.9-3.1-1.4-4.5c-2.7-7.7-6.5-11.9-10.8-11.9s-8.1,4.2-10.8,11.9
			c-0.5,1.4-1,2.9-1.4,4.5c-4.4-1.5-8.5-2.3-11.9-2.3c-5.2,0-7.5,1.9-8.5,3.5c-2.3,3.5-0.8,9.1,4.2,15.5c1.4,1.8,3.1,3.7,4.9,5.5
			c-1.8,1.8-3.5,3.7-4.9,5.5c-5,6.5-6.5,12-4.2,15.5c1,1.6,3.4,3.5,8.5,3.5c3.3,0,7.4-0.8,11.9-2.3c0.4,1.6,0.9,3.1,1.4,4.5
			c2.7,7.7,6.5,11.9,10.8,11.9s8.1-4.2,10.8-11.9c0.5-1.4,1-2.9,1.4-4.5c4.4,1.5,8.5,2.3,11.9,2.3c5.2,0,7.5-1.9,8.5-3.5
			C90,71.9,88.5,66.4,83.5,59.9z M79.2,32.9c2.1,0,4.8,0.4,5.9,2.1c1.9,3-1.2,9.6-8.5,17c-1.3-1.5-3.8-3.9-7.1-6.2
			c-0.3-3.8-0.8-7.4-1.5-10.7C72.2,33.7,76,32.9,79.2,32.9z M66.2,43.8c-0.4-0.2-0.9-0.4-1.3-0.6c-0.6-0.4-1.2-0.8-1.7-1.2
			c-1.6-1-3.1-2-4.7-2.9c2.2-1.1,4.4-2.1,6.6-3C65.5,38.6,65.9,41.1,66.2,43.8z M55.1,18.8c3.3,0,6.9,5.4,9.2,14.4
			c-3,1.1-6.1,2.6-9.2,4.2c-3.1-1.6-6.2-3.1-9.2-4.2C48.2,24.2,51.8,18.8,55.1,18.8z M55.2,41c0,0-0.1,0-0.1,0
			C55.1,40.9,55.1,40.9,55.2,41C55.2,40.9,55.2,40.9,55.2,41z M45.3,36.2c2.1,0.8,4.3,1.8,6.6,3c-1.6,0.9-3.1,1.9-4.7,2.9
			c-0.7,0.5-1.4,1-2.2,1.4c-0.3,0.1-0.6,0.3-0.9,0.5C44.4,41.2,44.8,38.6,45.3,36.2z M29.2,47c-4-5.2-5.5-9.6-4-11.9
			c1.1-1.7,3.8-2.1,5.9-2.1c3.1,0,6.9,0.8,11.2,2.2c-0.7,3.4-1.2,7-1.5,10.8c-3.3,2.2-5.7,4.7-7,6.1C32.1,50.4,30.5,48.7,29.2,47z
			 M31.1,75.9c-2.1,0-4.8-0.4-5.9-2.1c-1.5-2.3,0-6.7,4-11.9c1.3-1.7,2.8-3.3,4.4-5c1.3,1.4,3.8,4,7.1,6.3c0.3,3.7,0.8,7.3,1.5,10.5
			C38.1,75.1,34.2,75.9,31.1,75.9z M44.1,65.1c0.7,0.4,1.4,0.7,2.1,1c0.3,0.2,0.6,0.4,0.9,0.6c1.6,1,3.1,2,4.7,2.9
			c-2.2,1.1-4.4,2.1-6.6,3C44.8,70.3,44.4,67.8,44.1,65.1z M55.1,90.1c-3.3,0-6.9-5.4-9.2-14.4c3-1.1,6.1-2.6,9.2-4.2
			c3.1,1.6,6.2,3.1,9.2,4.2C62,84.6,58.5,90.1,55.1,90.1z M65,72.6c-2.1-0.8-4.3-1.8-6.6-3c1.6-0.9,3.1-1.9,4.7-2.9
			c0.2-0.1,0.4-0.3,0.6-0.4c0.8-0.3,1.6-0.7,2.4-1.1C65.9,67.9,65.5,70.3,65,72.6z M55.2,64.3c-8.6,0-15.8-6.9-18.4-9.7
			c2.6-2.8,9.9-9.7,18.4-9.7c8.6,0,15.8,6.9,18.4,9.7C71,57.4,63.8,64.3,55.2,64.3z M85.1,73.8c-1.1,1.7-3.8,2.1-5.9,2.1
			c-3.1,0-6.9-0.8-11.2-2.2c0.7-3.2,1.2-6.8,1.5-10.4c3.4-2.3,5.9-4.9,7.2-6.3C83.9,64.2,87,70.8,85.1,73.8z"/>
		<circle fill="#A00000" cx="54.7" cy="54.8" r="6.9"/>
	</g>
	<path fill="#A00000" d="M54.6,107.7c-29.3,0-53.1-23.8-53.1-53.1c0-29.3,23.8-53.1,53.1-53.1s53.1,23.8,53.1,53.1
		C107.7,83.9,83.9,107.7,54.6,107.7z M54.6,7.1C28.4,7.1,7.1,28.4,7.1,54.6c0,26.2,21.3,47.6,47.6,47.6s47.6-21.3,47.6-47.6
		C102.2,28.4,80.9,7.1,54.6,7.1z"/>
</g>
</svg>
