<?xml version="1.0" encoding="utf-8"?>
<!-- Generator: Adobe Illustrator 18.0.0, SVG Export Plug-In . SVG Version: 6.00 Build 0)  -->
<!DOCTYPE svg PUBLIC "-//W3C//DTD SVG 1.1//EN" "http://www.w3.org/Graphics/SVG/1.1/DTD/svg11.dtd">
<svg version="1.1" id="Layer_1" xmlns="http://www.w3.org/2000/svg" xmlns:xlink="http://www.w3.org/1999/xlink" x="0px" y="0px"
	 viewBox="0 0 141.4 141.4" enable-background="new 0 0 141.4 141.4" xml:space="preserve">
<g>
	<g>
		<g>
			<path fill="#FF151F" d="M108,77.5c-1.8-2.4-3.9-4.7-6.3-7.1c2.4-2.4,4.5-4.8,6.3-7.1c6.4-8.3,8.4-15.5,5.4-20
				c-1.3-2.1-4.4-4.6-11-4.6c-4.3,0-9.6,1.1-15.3,3c-0.5-2.1-1.1-4-1.8-5.9c-3.5-9.9-8.5-15.4-13.9-15.4S61,25.8,57.5,35.8
				c-0.7,1.8-1.2,3.8-1.8,5.9c-5.7-1.9-11-3-15.3-3c-6.7,0-9.7,2.5-11,4.6c-3,4.6-1,11.7,5.4,20c1.8,2.4,3.9,4.7,6.3,7.1
				c-2.4,2.4-4.5,4.8-6.3,7.1c-6.4,8.3-8.4,15.5-5.4,20c1.3,2.1,4.4,4.6,11,4.6c4.3,0,9.6-1.1,15.3-3c0.5,2.1,1.1,4,1.8,5.9
				c3.5,9.9,8.5,15.4,13.9,15.4S81.8,115,85.3,105c0.7-1.8,1.2-3.8,1.8-5.9c5.7,1.9,11,3,15.3,3c6.7,0,9.7-2.5,11-4.6
				C116.3,93,114.4,85.9,108,77.5z M102.4,42.7c2.7,0,6.2,0.5,7.6,2.7c2.5,3.9-1.5,12.4-11,21.9c-1.7-1.9-4.9-5.1-9.1-8
				c-0.4-4.9-1.1-9.5-2-13.8C93.4,43.7,98.3,42.7,102.4,42.7z M85.6,56.8c-0.6-0.3-1.1-0.6-1.7-0.8c-0.7-0.5-1.5-1-2.2-1.5
				c-2-1.3-4-2.5-6.1-3.7c2.9-1.4,5.7-2.7,8.5-3.8C84.7,50,85.2,53.3,85.6,56.8z M71.4,24.4c4.3,0,8.9,7,11.9,18.6
				c-3.8,1.5-7.8,3.3-11.9,5.4c-4-2.1-8-4-11.9-5.4C62.5,31.4,67.1,24.4,71.4,24.4z M71.4,53c-0.1,0-0.1,0-0.2,0
				C71.3,53,71.3,53,71.4,53C71.4,53,71.4,53,71.4,53z M58.6,47c2.8,1.1,5.6,2.4,8.5,3.8c-2,1.2-4,2.4-6.1,3.7
				c-0.9,0.6-1.9,1.2-2.8,1.9c-0.4,0.2-0.8,0.4-1.2,0.6C57.5,53.4,58,50,58.6,47z M37.9,60.8c-5.2-6.7-7.1-12.4-5.2-15.4
				c1.5-2.3,5-2.7,7.6-2.7c4,0,9,1,14.4,2.9c-0.9,4.3-1.6,9-2,14c-4.2,2.9-7.3,6.1-9,7.9C41.6,65.2,39.6,63,37.9,60.8z M40.4,98.1
				c-2.7,0-6.2-0.5-7.6-2.7c-1.9-2.9,0-8.7,5.2-15.4c1.6-2.1,3.6-4.3,5.7-6.5c1.6,1.8,4.9,5.1,9.2,8.1c0.4,4.8,1,9.4,1.9,13.6
				C49.3,97.1,44.4,98.1,40.4,98.1z M57.1,84.3c0.9,0.5,1.8,0.9,2.7,1.3c0.4,0.3,0.8,0.5,1.2,0.8c2,1.3,4,2.5,6.1,3.7
				c-2.9,1.4-5.7,2.7-8.5,3.8C58,90.9,57.5,87.7,57.1,84.3z M71.4,116.4c-4.3,0-8.9-7-11.9-18.6c3.8-1.5,7.8-3.3,11.9-5.4
				c4,2.1,8,4,11.9,5.4C80.3,109.4,75.7,116.4,71.4,116.4z M84.1,93.9c-2.8-1.1-5.6-2.4-8.5-3.8c2-1.2,4-2.4,6.1-3.7
				c0.3-0.2,0.5-0.4,0.8-0.5c1.1-0.4,2.1-0.9,3.1-1.4C85.2,87.8,84.7,90.9,84.1,93.9z M71.5,83.1c-11,0-20.4-8.9-23.8-12.5
				C51.1,66.9,60.4,58,71.5,58c11,0,20.4,8.9,23.7,12.5C91.9,74.2,82.6,83.1,71.5,83.1z M110,95.4c-1.5,2.3-5,2.7-7.6,2.7
				c-4,0-9-1-14.4-2.9c0.9-4.2,1.5-8.7,1.9-13.5c4.4-3,7.6-6.3,9.3-8.2C108.5,83.1,112.5,91.5,110,95.4z"/>
			<circle fill="#FF151F" cx="70.8" cy="71" r="8.9"/>
		</g>
		<path fill="#FF151F" d="M70.7,139.2c-37.8,0-68.5-30.7-68.5-68.5c0-37.8,30.7-68.5,68.5-68.5s68.5,30.7,68.5,68.5
			C139.2,108.5,108.5,139.2,70.7,139.2z M70.7,9.3C36.9,9.3,9.3,36.9,9.3,70.7c0,33.8,27.5,61.4,61.4,61.4s61.4-27.5,61.4-61.4
			C132.1,36.9,104.5,9.3,70.7,9.3z"/>
	</g>
</g>
</svg>
