<?xml version="1.0" encoding="utf-8"?>
<!-- Generator: Adobe Illustrator 18.0.0, SVG Export Plug-In . SVG Version: 6.00 Build 0)  -->
<!DOCTYPE svg PUBLIC "-//W3C//DTD SVG 1.1//EN" "http://www.w3.org/Graphics/SVG/1.1/DTD/svg11.dtd">
<svg version="1.1" id="Layer_1" xmlns="http://www.w3.org/2000/svg" xmlns:xlink="http://www.w3.org/1999/xlink" x="0px" y="0px"
	 viewBox="0 0 111 111" enable-background="new 0 0 111 111" xml:space="preserve">
<g>
	<path fill="#A00000" d="M72.5,36.2c-1.3-1.3-2.9-2-4.5-2.1l6.7,6.7C74.5,39,73.8,37.4,72.5,36.2z"/>
	<path fill="#A00000" d="M55.5,2C26,2,2,26,2,55.5S26,109,55.5,109S109,85,109,55.5S85,2,55.5,2z M55.5,103.4
		c-6.7,0-13-1.4-18.8-3.8c4.5-0.6,8.7-2.6,12-5.9c6.9-6.9,8-17.5,2.9-25.6c2.1-3.1,1.7-7.3-1-10.1c-3.1-3.1-8.2-3.1-11.3,0
		c-3.1,3.1-3.1,8.2,0,11.3c2.4,2.4,5.8,2.9,8.7,1.7c3.7,6.3,2.7,14.3-2.5,19.5c-3,3-7.1,4.7-11.4,4.7c-3.6,0-6.9-1.2-9.7-3.3
		C14.2,83.1,7.6,70.1,7.6,55.5c0-26.4,21.5-47.9,47.9-47.9s47.9,21.5,47.9,47.9S81.9,103.4,55.5,103.4z M48.6,65.9l-1.2,1.2
		l-5.9-5.9l1.2-1.2L48.6,65.9z"/>
	
		<rect x="57" y="35.4" transform="matrix(-0.7071 -0.7071 0.7071 -0.7071 77.6218 121.3698)" fill="#A00000" width="14" height="18.4"/>
	<polygon fill="#A00000" points="27.6,75 24.5,71.8 22.5,73.8 30.8,82.1 30.8,82.1 31.6,82.9 35.9,78.5 30,72.6 	"/>
	<path fill="#A00000" d="M46.2,54.8c1.9,0.3,3.7,1.1,5.1,2.5c1.3,1.3,2.2,3,2.5,4.9l5.4-5.4l-7.5-7.5L46.2,54.8z"/>
	<path fill="#A00000" d="M30.8,70.3l7.5,7.5l5.3-5.3c-1.8-0.3-3.5-1.2-4.9-2.5c-1.4-1.4-2.3-3.2-2.5-5.1L30.8,70.3z"/>
	<circle fill="#A00000" cx="80.3" cy="27.8" r="1.7"/>
	<circle fill="#A00000" cx="32.3" cy="32.9" r="1"/>
	<circle fill="#A00000" cx="73.4" cy="66.3" r="1"/>
	<circle fill="#A00000" cx="22.2" cy="54.6" r="0.6"/>
	<circle fill="#A00000" cx="62.5" cy="91.1" r="0.6"/>
	<circle fill="#A00000" cx="43.1" cy="45.1" r="0.9"/>
	<circle fill="#A00000" cx="88.9" cy="60.6" r="0.9"/>
	<circle fill="#A00000" cx="28.4" cy="44.2" r="1.5"/>
	<circle fill="#A00000" cx="52.4" cy="26.3" r="1.5"/>
	<circle fill="#A00000" cx="79.6" cy="82.9" r="1.5"/>
	<circle fill="#A00000" cx="44.3" cy="19.4" r="0.6"/>
	<circle fill="#A00000" cx="62.9" cy="17.8" r="0.6"/>
	<circle fill="#A00000" cx="62.9" cy="75.2" r="0.6"/>
</g>
</svg>
