<?xml version="1.0" encoding="utf-8"?>
<!-- Generator: Adobe Illustrator 18.0.0, SVG Export Plug-In . SVG Version: 6.00 Build 0)  -->
<!DOCTYPE svg PUBLIC "-//W3C//DTD SVG 1.1//EN" "http://www.w3.org/Graphics/SVG/1.1/DTD/svg11.dtd">
<svg version="1.1" id="Layer_1" xmlns="http://www.w3.org/2000/svg" xmlns:xlink="http://www.w3.org/1999/xlink" x="0px" y="0px"
	 viewBox="0 0 53.3 53.3" enable-background="new 0 0 53.3 53.3" xml:space="preserve">
<path fill="#9E1C20" d="M26.6,0.6c-14.4,0-26,11.7-26,26s11.7,26,26,26s26-11.7,26-26S41,0.6,26.6,0.6z M35.7,26.7
	c-1.9,8-14.9,11.4-20.9,3.1c2.3,2.2,6.3,2.4,8.8-0.2c-1.5,0.2-2.6-1.3-0.7-2.1c-1.6,0.2-2.5-0.7-2.9-1.5c0.4-0.4,0.8-0.6,1.6-0.7
	c-1.8-0.4-2.5-1.3-2.7-2.4c0.5-0.1,1.1-0.2,1.5-0.2c-1.6-0.8-2.1-2.1-2-3c2.8,1.1,4.6,1.9,6.1,2.7c0.5,0.3,1.1,0.8,1.8,1.5
	c0.8-2.3,1.9-4.7,3.7-5.8c0,0.3-0.2,0.5-0.4,0.7c0.5-0.5,1.2-0.8,1.9-0.9c-0.1,0.5-0.8,0.8-1.2,1c0.3-0.1,2.1-0.9,2.3-0.5
	c0.2,0.5-1.2,0.8-1.5,0.9c-0.2,0.1-0.4,0.1-0.6,0.2c2.3-0.2,4.4,1.7,5,4c0,0.2,0.1,0.4,0.1,0.6c0.8,0.3,2.3,0,2.8-0.3
	c-0.4,0.8-1.3,1.5-2.6,1.6c0.6,0.3,1.9,0.4,2.7,0.3C38,26.2,37.1,26.7,35.7,26.7z"/>
</svg>
