<svg baseProfile="tiny" xmlns="http://www.w3.org/2000/svg" width="156" height="39" preserveAspectRatio="xMaxYMax meet" viewBox="0 0 156 39" ><path d="M16 0c8.837 0 16 7.163 16 16 0 8.159-6.107 14.892-14 15.876v-11.876h5.5l.5-4h-6v-2c0-1.105.895-2 2-2h4v-4h-4c-3.314 0-6 2.686-6 6v2h-3v4h3v11.876c-7.893-.984-14-7.717-14-15.876 0-8.837 7.163-16 16-16z" fill="#ff801f"/><g transform="translate(52)"><path d="M26.688 0h-21.375c-2.922 0-5.313 2.391-5.313 5.313v21.375c0 2.922 2.391 5.313 5.313 5.313h21.375c2.922 0 5.313-2.391 5.313-5.313v-21.375c0-2.922-2.391-5.313-5.313-5.313zm-16.444 14h11.513c.218.627.337 1.3.337 2 0 3.36-2.734 6.094-6.094 6.094-3.36 0-6.094-2.734-6.094-6.094 0-.7.119-1.373.338-2zm17.756.002v11.998c0 1.1-.9 2-2 2h-20c-1.1 0-2-.9-2-2v-12h3.128c-.145.644-.222 1.313-.222 2 0 5.014 4.079 9.094 9.094 9.094 5.014 0 9.094-4.079 9.094-9.094 0-.687-.077-1.356-.222-2l3.128.002zm0-7.002c0 .55-.45 1-1 1h-2c-.55 0-1-.45-1-1v-2c0-.55.45-1 1-1h2c.55 0 1 .45 1 1v2z" fill="#ff801f"/></g><g transform="translate(104)"><path d="M16 0c-8.837 0-16 7.163-16 16s7.163 16 16 16 16-7.163 16-16-7.163-16-16-16zm9.195 11.284l.014.614c0 6.269-4.772 13.499-13.499 13.499-2.679 0-5.173-.785-7.273-2.132.371.044.749.066 1.132.066 2.223 0 4.268-.759 5.892-2.031-2.076-.038-3.828-1.41-4.432-3.295.29.055.587.085.893.085.433 0 .852-.058 1.25-.166-2.17-.436-3.806-2.354-3.806-4.652v-.06c.64.355 1.371.569 2.149.593-1.273-.851-2.111-2.303-2.111-3.949 0-.869.234-1.684.642-2.385 2.34 2.87 5.836 4.759 9.779 4.957-.081-.347-.123-.709-.123-1.081 0-2.62 2.124-4.744 4.744-4.744 1.365 0 2.598.576 3.463 1.498 1.081-.213 2.096-.608 3.013-1.151-.354 1.108-1.107 2.038-2.086 2.625.96-.115 1.874-.37 2.725-.747-.636.951-1.44 1.787-2.367 2.456z" fill="#ff801f"/></g></svg>